# 3ds Max Wavefront OBJ Exporter v0.97b - (c)2007 guruware
# 创建的文件:22.03.2023 17:13:26

mtllib ltd_30.mtl

#
# object Plane002
#

v  -17.0000 221.9999 -65.0000
v  -17.0000 221.9999 65.0000
v  17.0000 221.9999 65.0000
v  17.0000 221.9999 -65.0000
# 4 vertices

vn 0.0000 1.0000 -0.0000
# 1 vertex normals

vt 0.0000 1.0000 0.0000
vt 0.0000 0.0000 0.0000
vt 1.0000 0.0000 0.0000
vt 1.0000 1.0000 0.0000
# 4 texture coords

g Plane002
usemtl 02___Default
s 1
f 1/1/1 2/2/1 3/3/1 4/4/1 
# 1 polygons

#
# object Box268
#

v  -17.0000 211.5000 65.0000
v  -17.0000 211.5000 63.0000
v  17.0000 211.5000 63.0000
v  17.0000 211.5000 65.0000
v  -17.0000 221.5000 65.0000
v  17.0000 221.5000 65.0000
v  17.0000 221.5000 63.0000
v  -17.0000 221.5000 63.0000
# 8 vertices

vn 0.0000 -1.0000 -0.0000
vn 0.0000 1.0000 -0.0000
vn 0.0000 0.0000 1.0000
vn 1.0000 0.0000 -0.0000
vn 0.0000 0.0000 -1.0000
vn -1.0000 0.0000 -0.0000
# 6 vertex normals

vt 1.0000 0.0000 0.0000
vt 1.0000 1.0000 0.0000
vt 0.0000 1.0000 0.0000
vt 0.0000 0.0000 0.0000
# 4 texture coords

g Box268
usemtl 01___Default
s 2
f 5/5/2 6/6/2 7/7/2 8/8/2 
s 4
f 9/8/3 10/5/3 11/6/3 12/7/3 
s 8
f 5/8/4 8/5/4 10/6/4 9/7/4 
s 16
f 8/8/5 7/5/5 11/6/5 10/7/5 
s 32
f 7/8/6 6/5/6 12/6/6 11/7/6 
s 64
f 6/8/7 5/5/7 9/6/7 12/7/7 
# 6 polygons

#
# object ltd_deng001
#

v  -17.0000 221.0000 -63.6818
v  -17.0000 220.7588 -62.3137
v  17.0000 220.7588 -62.3137
v  17.0000 221.0000 -63.6818
v  -17.0000 220.0642 -61.1106
v  17.0000 220.0642 -61.1106
v  -17.0000 219.0000 -60.2177
v  17.0000 219.0000 -60.2177
v  -17.0000 217.6946 -59.7425
v  17.0000 217.6946 -59.7425
v  -17.0000 216.3054 -59.7425
v  17.0000 216.3054 -59.7425
v  -17.0000 215.0000 -60.2177
v  17.0000 215.0000 -60.2177
v  -17.0000 213.9358 -61.1106
v  17.0000 213.9358 -61.1106
v  -17.0000 213.2412 -62.3137
v  17.0000 213.2412 -62.3137
v  -17.0000 213.0000 -63.6818
v  17.0000 213.0000 -63.6818
v  17.0000 221.0000 63.0674
v  17.0000 220.7588 61.6993
v  -17.0000 220.7588 61.6993
v  -17.0000 221.0000 63.0674
v  17.0000 220.0642 60.4963
v  -17.0000 220.0642 60.4963
v  17.0000 219.0000 59.6033
v  -17.0000 219.0000 59.6033
v  17.0000 217.6946 59.1282
v  -17.0000 217.6946 59.1282
v  17.0000 216.3054 59.1282
v  -17.0000 216.3054 59.1282
v  17.0000 215.0000 59.6033
v  -17.0000 215.0000 59.6033
v  17.0000 213.9358 60.4963
v  -17.0000 213.9358 60.4963
v  17.0000 213.2412 61.6993
v  -17.0000 213.2412 61.6993
v  17.0000 213.0000 63.0674
v  -17.0000 213.0000 63.0674
# 40 vertices

vn -0.0000 0.9848 0.1736
vn -0.0000 0.9397 0.3420
vn -0.0000 0.7660 0.6428
vn -0.0000 0.5000 0.8660
vn -0.0000 0.1736 0.9848
vn 0.0000 -0.1736 0.9848
vn 0.0000 -0.5000 0.8660
vn 0.0000 -0.7660 0.6428
vn 0.0000 -0.9397 0.3420
vn 0.0000 -0.9848 0.1736
vn -0.0000 0.9848 -0.1736
vn -0.0000 0.9397 -0.3420
vn -0.0000 0.7660 -0.6428
vn -0.0000 0.5000 -0.8660
vn -0.0000 0.1736 -0.9848
vn -0.0000 0.1737 -0.9848
vn -0.0000 -0.1736 -0.9848
vn -0.0000 -0.5000 -0.8660
vn 0.0000 -0.7660 -0.6428
vn 0.0000 -0.9397 -0.3420
vn 0.0000 -0.9848 -0.1736
# 21 vertex normals

vt 0.2500 0.0000 1.0000
vt 0.3056 0.0000 1.0000
vt 0.3056 1.0000 1.0000
vt 0.2500 1.0000 1.0000
vt 0.3611 0.0000 1.0000
vt 0.3611 1.0000 1.0000
vt 0.4167 0.0000 1.0000
vt 0.4167 1.0000 1.0000
vt 0.4722 0.0000 1.0000
vt 0.4722 1.0000 1.0000
vt 0.5278 0.0000 1.0000
vt 0.5278 1.0000 1.0000
vt 0.5833 0.0000 1.0000
vt 0.5833 1.0000 1.0000
vt 0.6389 0.0000 1.0000
vt 0.6389 1.0000 1.0000
vt 0.6944 0.0000 1.0000
vt 0.6944 1.0000 1.0000
vt 0.7500 0.0000 1.0000
vt 0.7500 1.0000 1.0000
# 20 texture coords

g ltd_deng001
usemtl ltd_deng
s 8
f 13/9/8 14/10/9 15/11/9 16/12/8 
f 14/10/9 17/13/10 18/14/10 15/11/9 
f 17/13/10 19/15/11 20/16/11 18/14/10 
f 19/15/11 21/17/12 22/18/12 20/16/11 
f 21/17/12 23/19/13 24/20/13 22/18/12 
f 23/19/13 25/21/14 26/22/14 24/20/13 
f 25/21/14 27/23/15 28/24/15 26/22/14 
f 27/23/15 29/25/16 30/26/16 28/24/15 
f 29/25/16 31/27/17 32/28/17 30/26/16 
f 33/9/18 34/10/19 35/11/19 36/12/18 
f 34/10/19 37/13/20 38/14/20 35/11/19 
f 37/13/20 39/15/21 40/16/21 38/14/20 
f 39/15/21 41/17/22 42/18/23 40/16/21 
f 41/17/22 43/19/24 44/20/24 42/18/23 
f 43/19/24 45/21/25 46/22/25 44/20/24 
f 45/21/25 47/23/26 48/24/26 46/22/25 
f 47/23/26 49/25/27 50/26/27 48/24/26 
f 49/25/27 51/27/28 52/28/28 50/26/27 
# 18 polygons

#
# object Box269
#

v  -17.0000 0.0000 -65.0141
v  17.0000 0.0000 -65.0140
v  17.0000 0.0000 65.0140
v  -17.0000 0.0000 65.0140
v  17.0000 3.4935 -64.9860
v  17.0000 3.4935 64.9860
v  -17.0000 3.4935 64.9859
v  -17.0000 3.4935 -64.9860
# 8 vertices

vn 0.0000 -1.0000 -0.0000
vn 1.0000 0.0000 -0.0000
vn -1.0000 0.0000 -0.0000
vn -0.0000 1.0000 0.0000
vn -0.0000 1.0000 -0.0000
# 5 vertex normals

vt 0.5135 1.0417 0.4709
vt 0.2841 1.0417 0.4709
vt 0.2841 -0.0419 0.4709
vt 0.5135 -0.0419 0.4709
vt 1.0417 0.4709 0.7159
vt 1.0414 0.5000 0.7159
vt -0.0417 0.5000 0.7159
vt -0.0419 0.4709 0.7159
vt 1.0419 0.4709 0.4865
vt 1.0417 0.5000 0.4865
vt -0.0414 0.5000 0.4865
vt -0.0417 0.4709 0.4865
vt 0.7159 1.0414 0.5000
vt 0.4865 1.0414 0.5000
vt 0.4865 -0.0417 0.5000
vt 0.7159 -0.0417 0.5000
# 16 texture coords

g Box269
usemtl 01___Default
s 2
f 53/29/29 54/30/29 55/31/29 56/32/29 
s 16
f 54/33/30 57/34/30 58/35/30 55/36/30 
s 64
f 56/37/31 59/38/31 60/39/31 53/40/31 
usemtl td_ditan
s 1
f 57/41/32 60/42/32 59/43/32 58/44/33 
# 4 polygons

#
# object Box270
#

v  12.0000 221.5181 65.0000
v  12.0000 221.5181 -65.0000
v  17.0000 221.5181 -65.0000
v  17.0000 221.5181 65.0000
v  12.0000 222.4819 65.0000
v  17.0000 222.4819 65.0000
v  17.0000 222.4819 -65.0000
v  12.0000 222.4819 -65.0000
# 8 vertices

vn 0.0000 -1.0000 -0.0000
vn 0.0000 1.0000 -0.0000
vn 0.0000 0.0000 1.0000
vn 1.0000 0.0000 -0.0000
vn 0.0000 0.0000 -1.0000
vn -1.0000 0.0000 -0.0000
# 6 vertex normals

vt 1.0000 0.0000 0.0000
vt 1.0000 1.0000 0.0000
vt 0.0000 1.0000 0.0000
vt 0.0000 0.0000 0.0000
# 4 texture coords

g Box270
usemtl 01___Default
s 2
f 61/45/34 62/46/34 63/47/34 64/48/34 
s 4
f 65/48/35 66/45/35 67/46/35 68/47/35 
s 8
f 61/48/36 64/45/36 66/46/36 65/47/36 
s 16
f 64/48/37 63/45/37 67/46/37 66/47/37 
s 32
f 63/48/38 62/45/38 68/46/38 67/47/38 
s 64
f 62/48/39 61/45/39 65/46/39 68/47/39 
# 6 polygons

#
# object Box271
#

v  -17.0000 211.5000 -63.0000
v  -17.0000 211.5000 -65.0000
v  17.0000 211.5000 -65.0000
v  17.0000 211.5000 -63.0000
v  -17.0000 221.5000 -63.0000
v  17.0000 221.5000 -63.0000
v  17.0000 221.5000 -65.0000
v  -17.0000 221.5000 -65.0000
# 8 vertices

vn 0.0000 -1.0000 -0.0000
vn 0.0000 1.0000 -0.0000
vn 0.0000 0.0000 1.0000
vn 1.0000 0.0000 -0.0000
vn 0.0000 0.0000 -1.0000
vn -1.0000 0.0000 -0.0000
# 6 vertex normals

vt 1.0000 0.0000 0.0000
vt 1.0000 1.0000 0.0000
vt 0.0000 1.0000 0.0000
vt 0.0000 0.0000 0.0000
# 4 texture coords

g Box271
usemtl 01___Default
s 2
f 69/49/40 70/50/40 71/51/40 72/52/40 
s 4
f 73/52/41 74/49/41 75/50/41 76/51/41 
s 8
f 69/52/42 72/49/42 74/50/42 73/51/42 
s 16
f 72/52/43 71/49/43 75/50/43 74/51/43 
s 32
f 71/52/44 70/49/44 76/50/44 75/51/44 
s 64
f 70/52/45 69/49/45 73/50/45 76/51/45 
# 6 polygons

