# 3ds Max Wavefront OBJ Exporter v0.97b - (c)2007 guruware
# 创建的文件:23.03.2023 10:52:23

mtllib jg_80.mtl

#
# object jigui
#

v  -42.0000 6.0000 57.5000
v  -42.0000 6.0000 -57.5000
v  38.0000 6.0000 -57.5000
v  38.0000 6.0000 57.5000
v  -42.0000 206.0000 57.5000
v  38.0000 206.0000 57.5000
v  38.0000 206.0000 -57.5000
v  -42.0000 206.0000 -57.5000
# 8 vertices

vn 0.0000 -1.0000 -0.0000
vn 0.0000 1.0000 -0.0000
vn 0.0000 0.0000 1.0000
vn 1.0000 0.0000 -0.0000
vn 0.0000 0.0000 -1.0000
vn -1.0000 0.0000 -0.0000
# 6 vertex normals

vt 1.0000 0.0000 0.0000
vt 1.0000 1.0000 0.0000
vt 0.0000 1.0000 0.0000
vt 0.0000 0.0000 0.0000
# 4 texture coords

g jigui
usemtl Material__1703
s 2
f 1/1/1 2/2/1 3/3/1 4/4/1
usemtl 01___Default
s 4
f 5/4/2 6/1/2 7/2/2 8/3/2
usemtl jg_b_60
s 8
f 1/4/3 4/1/3 6/2/3 5/3/3
usemtl Material__1705
s 16
f 4/4/4 3/1/4 7/2/4 6/3/4
usemtl jg_80_f
s 32
f 3/4/5 2/1/5 8/2/5 7/3/5
usemtl 01___Default
s 64
f 2/4/6 1/1/6 5/2/6 8/3/6
# 6 polygons

#
# object Box284
#

v  -42.0000 207.0000 57.5000
v  -42.0000 207.0000 -57.5000
v  42.0000 207.0000 -57.5000
v  42.0000 207.0000 57.5000
v  -42.0000 212.0000 57.5000
v  42.0000 212.0000 57.5000
v  42.0000 212.0000 -57.5000
v  -42.0000 212.0000 -57.5000
# 8 vertices

vn 0.0000 -1.0000 -0.0000
vn 0.0000 1.0000 -0.0000
vn 0.0000 0.0000 1.0000
vn 1.0000 0.0000 -0.0000
vn 0.0000 0.0000 -1.0000
vn -1.0000 0.0000 -0.0000
# 6 vertex normals

vt 1.0000 0.0000 0.0000
vt 1.0000 1.0000 0.0000
vt 0.0000 1.0000 0.0000
vt 0.0000 0.0000 0.0000
# 4 texture coords

g Box284
usemtl 01___Default
s 2
f 9/5/7 10/6/7 11/7/7 12/8/7
s 4
f 13/8/8 14/5/8 15/6/8 16/7/8
s 8
f 9/8/9 12/5/9 14/6/9 13/7/9
s 16
f 12/8/10 11/5/10 15/6/10 14/7/10
s 32
f 11/8/11 10/5/11 16/6/11 15/7/11
s 64
f 10/8/12 9/5/12 13/6/12 16/7/12
# 6 polygons

#
# object Box285
#

v  -42.0000 0.0000 57.5000
v  -42.0000 0.0000 -57.5000
v  42.0000 0.0000 -57.5000
v  42.0000 0.0000 57.5000
v  -42.0000 5.0000 57.5000
v  42.0000 5.0000 57.5000
v  42.0000 5.0000 -57.5000
v  -42.0000 5.0000 -57.5000
# 8 vertices

vn 0.0000 -1.0000 -0.0000
vn 0.0000 1.0000 -0.0000
vn 0.0000 0.0000 1.0000
vn 1.0000 0.0000 -0.0000
vn 0.0000 0.0000 -1.0000
vn -1.0000 0.0000 -0.0000
# 6 vertex normals

vt 1.0000 0.0000 0.0000
vt 1.0000 1.0000 0.0000
vt 0.0000 1.0000 0.0000
vt 0.0000 0.0000 0.0000
# 4 texture coords

g Box285
usemtl 01___Default
s 2
f 17/9/13 18/10/13 19/11/13 20/12/13
s 4
f 21/12/14 22/9/14 23/10/14 24/11/14
s 8
f 17/12/15 20/9/15 22/10/15 21/11/15
s 16
f 20/12/16 19/9/16 23/10/16 22/11/16
s 32
f 19/12/17 18/9/17 24/10/17 23/11/17
s 64
f 18/12/18 17/9/18 21/10/18 24/11/18
# 6 polygons

#
# object jg_suo
#

v  -4.3207 95.6477 -57.5000
v  -4.3207 111.6477 -57.5000
v  -8.1207 111.6477 -57.5000
v  -8.1207 95.6477 -57.5000
v  -4.9821 109.4205 -59.0000
v  -4.9821 97.8749 -59.0000
v  -7.4594 97.8749 -59.0000
v  -7.4594 109.4205 -59.0000
v  -8.1207 95.6477 -58.3000
v  -4.3207 95.6477 -58.3000
v  -8.1207 111.6477 -58.3000
v  -8.1207 109.4205 -58.3000
v  -8.1207 97.8749 -58.3000
v  -4.3207 111.6477 -58.3000
v  -4.3207 97.8749 -58.3000
v  -4.3207 109.4205 -58.3000
# 16 vertices

vn -0.0000 0.0000 1.0000
vn 0.4171 0.3555 -0.8364
vn 0.3546 -0.0988 -0.9298
vn -0.4171 -0.3555 -0.8364
vn -0.3546 0.0988 -0.9298
vn -0.0000 -1.0000 0.0000
vn -1.0000 0.0000 -0.0000
vn 0.0000 1.0000 -0.0000
vn 1.0000 0.0000 0.0000
vn -0.1305 0.2234 -0.9660
vn 0.0000 -0.0000 -1.0000
vn 0.5129 0.2383 -0.8247
vn -0.7269 -0.0000 -0.6867
vn 0.1305 -0.2234 -0.9660
vn -0.5129 -0.2383 -0.8247
vn 0.7269 -0.0000 -0.6867
# 16 vertex normals

vt 1.0000 0.0000 0.0000
vt 1.0000 1.0000 0.0000
vt 0.0000 1.0000 0.0000
vt 0.0000 0.0000 0.0000
vt 0.1740 0.8608 0.0000
vt 0.1740 0.1392 0.0000
vt 0.8260 0.1392 0.0000
vt 0.8260 0.8608 0.0000
vt 0.8608 1.0000 0.0000
vt 0.1392 1.0000 0.0000
vt 0.0000 0.8608 0.0000
vt 1.0000 0.8608 0.0000
vt 1.0000 0.1392 0.0000
vt 0.0000 0.1392 0.0000
# 14 texture coords

g jg_suo
usemtl jg_suo
s 2
f 25/13/19 26/14/19 27/15/19 28/16/19
s 4
f 29/17/20 30/18/21 31/19/22 32/20/23
s 8
f 25/16/24 28/13/24 33/14/24 34/15/24
s 16
f 28/16/25 27/13/25 35/14/25 36/21/25
f 28/16/25 36/21/25 37/22/25 33/15/25
s 32
f 27/16/26 26/13/26 38/14/26 35/15/26
s 64
f 26/16/27 25/13/27 34/14/27 39/21/27
f 26/16/27 39/21/27 40/22/27 38/15/27
s 4
f 35/14/28 38/15/29 40/23/30 29/17/20
f 35/14/28 29/17/20 32/20/23 36/24/31
f 34/16/32 33/13/29 37/25/33 31/19/22
f 34/16/32 31/19/22 30/18/21 39/26/34
f 40/23/30 39/26/34 30/18/21 29/17/20
f 37/25/33 36/24/31 32/20/23 31/19/22
# 14 polygons

#
# object Box286
#

v  38.5500 6.0000 57.5000
v  38.5500 6.0000 -57.5000
v  41.9500 6.0000 -57.5000
v  41.9500 6.0000 57.5000
v  38.5500 206.0000 57.5000
v  41.9500 206.0000 57.5000
v  41.9500 206.0000 -57.5000
v  38.5500 206.0000 -57.5000
# 8 vertices

vn 0.0000 -1.0000 -0.0000
vn 0.0000 1.0000 -0.0000
vn 0.0000 0.0000 1.0000
vn 1.0000 0.0000 -0.0000
vn 0.0000 0.0000 -1.0000
vn -1.0000 0.0000 -0.0000
# 6 vertex normals

vt 1.0000 0.0000 0.0000
vt 1.0000 1.0000 0.0000
vt 0.0000 1.0000 0.0000
vt 0.0000 0.0000 0.0000
# 4 texture coords

g Box286
usemtl 01___Default
s 2
f 41/27/35 42/28/35 43/29/35 44/30/35
s 4
f 45/30/36 46/27/36 47/28/36 48/29/36
s 8
f 41/30/37 44/27/37 46/28/37 45/29/37
s 16
f 44/30/38 43/27/38 47/28/38 46/29/38
s 32
f 43/30/39 42/27/39 48/28/39 47/29/39
s 64
f 42/30/40 41/27/40 45/28/40 48/29/40
# 6 polygons

