<?xml version="1.0" standalone="no"?><!DOCTYPE svg PUBLIC "-//W3C//DTD SVG 1.1//EN" "http://www.w3.org/Graphics/SVG/1.1/DTD/svg11.dtd"><svg t="1714027552871" class="icon" viewBox="0 0 1024 1024" version="1.1" xmlns="http://www.w3.org/2000/svg" p-id="62042" width="128" height="128" xmlns:xlink="http://www.w3.org/1999/xlink"><path d="M1001.2 450.2c-2.8-2.2-27.8-20.6-81.4-20.6-14.2 0-28.2 1.2-42.2 3.6-10.2-68.2-69-101.2-71.2-103.2l-14.4-8-9.2 13c-11.8 17.6-20.2 36.8-25.4 57.2-9.8 38.8-3.8 75.4 16.6 106.6-24.6 13.4-64.4 16.6-72.6 16.8H44.2c-1 0-2 0-3 0.2-1 0-2 0.2-3 0.4s-2 0.4-3 0.8c-1 0.2-2 0.6-2.8 1-1 0.4-1.8 0.8-2.8 1.2s-1.8 1-2.6 1.6l-2.4 1.8c-0.8 0.6-1.6 1.2-2.2 2-0.8 0.6-1.4 1.4-2 2.2l-1.8 2.4c-0.6 0.8-1 1.6-1.6 2.6-0.4 0.8-1 1.8-1.2 2.6s-0.8 1.8-1 2.8c-0.2 1-0.6 1.8-0.8 2.8-0.2 1-0.4 2-0.4 3s-0.2 2-0.2 3c-0.4 27.8 1.8 55.4 6.6 82.6 4.8 27.4 12.2 54 22.2 80.2C64.8 766 98.6 808.4 142 834.2c49.2 29 129.2 45.4 219.4 45.4 41 0 81.4-3.6 121.8-10.8 28-4.8 55.4-12 82-21.4 26.8-9.4 52.4-20.8 77.2-34.4 20.4-11.4 39.6-24.2 57.8-38.6 18.2-14.4 35-30 50.6-47 52.2-56.6 83.4-120 106-176.2h9.2c57 0 92.2-21.8 111.6-40.6 6.4-5.8 12.2-12.4 17.2-19.4 5-7 9.2-14.6 12.4-22.6l4.2-11.6-10.2-6.8z" p-id="62043" fill="#ffffff"></path><path d="M594.4 497.4h88c0.6 0 1 0 1.6-0.2 0.6 0 1-0.2 1.4-0.4 0.4-0.2 1-0.4 1.4-0.6 0.4-0.2 0.8-0.6 1.2-1 0.4-0.4 0.6-0.8 1-1.2 0.2-0.4 0.6-0.8 0.8-1.2 0.2-0.4 0.4-1 0.4-1.4 0-0.4 0.2-1 0.2-1.4v-76c0-0.4 0-1-0.2-1.4 0-0.4-0.2-1-0.4-1.4-0.2-0.4-0.4-0.8-0.8-1.2-0.2-0.4-0.6-0.8-1-1.2-0.4-0.4-0.8-0.6-1.2-1-0.4-0.2-0.8-0.6-1.4-0.6-0.4-0.2-1-0.4-1.4-0.4-0.6 0-1-0.2-1.6-0.2h-88c-0.6 0-1 0-1.6 0.2-0.6 0-1 0.2-1.4 0.4-0.4 0.2-1 0.4-1.4 0.6s-0.8 0.6-1.2 1c-0.4 0.4-0.6 0.8-1 1.2-0.2 0.4-0.6 0.8-0.8 1.2-0.2 0.4-0.4 1-0.4 1.4 0 0.4-0.2 1-0.2 1.4v75.8c0 1 0.2 2 0.6 2.8 0.4 1 1 1.8 1.6 2.4s1.6 1.2 2.4 1.6c1.4 0.6 2.4 0.8 3.4 0.8m-122.6-217.2h88c0.6 0 1 0 1.6-0.2 0.6 0 1-0.2 1.4-0.4s1-0.4 1.4-0.6c0.4-0.2 0.8-0.6 1.2-1s0.6-0.8 1-1.2c0.2-0.4 0.6-0.8 0.8-1.2s0.4-1 0.4-1.4c0-0.4 0.2-1 0.2-1.4v-76c0-1-0.2-2-0.6-2.8s-1-1.6-1.6-2.4c-0.8-0.6-1.6-1.2-2.4-1.6-1-0.4-2-0.6-3-0.6h-88c-0.6 0-1 0-1.6 0.2-0.6 0-1 0.2-1.4 0.4-0.4 0.2-1 0.4-1.4 0.6s-0.8 0.6-1.2 1c-0.4 0.4-0.6 0.8-1 1.2-0.2 0.4-0.6 0.8-0.8 1.2-0.2 0.4-0.4 1-0.4 1.4 0 0.4-0.2 1-0.2 1.4v75.8c0 1 0.2 2 0.6 2.8 0.4 1 1 1.6 1.6 2.4 0.8 0.6 1.6 1.2 2.4 1.6 1 0.4 2 0.6 3 0.8m0 108.8h88c1 0 2-0.2 3-0.6 1-0.4 1.8-1 2.4-1.6 0.8-0.6 1.2-1.4 1.6-2.4 0.4-1 0.6-1.8 0.6-2.8v-76c0-1-0.2-2-0.6-2.8-0.4-1-1-1.6-1.6-2.4-0.8-0.6-1.6-1.2-2.4-1.6-1-0.4-2-0.6-3-0.6h-88c-0.6 0-1 0-1.6 0.2-0.6 0-1 0.2-1.4 0.4-0.4 0.2-1 0.4-1.4 0.6s-0.8 0.6-1.2 1c-0.4 0.4-0.6 0.8-1 1.2-0.2 0.4-0.6 0.8-0.8 1.2-0.2 0.4-0.4 1-0.4 1.4 0 0.4-0.2 1-0.2 1.4v75.8c0 1 0.2 2 0.6 2.8 0.4 1 1 1.6 1.6 2.4 0.8 0.6 1.6 1.2 2.4 1.6 1.4 0.6 2.4 0.8 3.4 0.8m-121.8 0h88c1 0 2-0.2 3-0.6s1.8-1 2.4-1.6c0.8-0.6 1.2-1.4 1.6-2.4 0.4-1 0.6-1.8 0.6-2.8v-76c0-0.4 0-1-0.2-1.4 0-0.4-0.2-1-0.4-1.4-0.2-0.4-0.4-0.8-0.8-1.2-0.2-0.4-0.6-0.8-1-1.2-0.4-0.4-0.8-0.6-1.2-1-0.4-0.2-0.8-0.6-1.4-0.6-0.4-0.2-1-0.4-1.4-0.4-0.6 0-1-0.2-1.6-0.2h-88c-0.6 0-1 0-1.6 0.2-0.6 0-1 0.2-1.4 0.4-0.4 0.2-1 0.4-1.4 0.6-0.4 0.2-0.8 0.6-1.2 1-0.4 0.4-0.6 0.8-1 1.2-0.2 0.4-0.6 0.8-0.8 1.2s-0.4 1-0.4 1.4c0 0.4-0.2 1-0.2 1.4v75.8c0 0.4 0 1 0.2 1.4 0 0.4 0.2 1 0.4 1.4 0.2 0.4 0.4 0.8 0.8 1.2 0.2 0.4 0.6 0.8 1 1.2 0.4 0.4 0.8 0.6 1.2 1s0.8 0.6 1.4 0.6c0.4 0.2 1 0.4 1.4 0.4 1 0.4 1.6 0.4 2 0.4m-123.6 0h88c1 0 2-0.2 3-0.6 1-0.4 1.8-1 2.4-1.6 0.8-0.6 1.2-1.4 1.6-2.4 0.4-1 0.6-1.8 0.6-2.8v-76c0-0.4 0-1-0.2-1.4 0-0.4-0.2-1-0.4-1.4-0.2-0.4-0.4-0.8-0.8-1.2-0.2-0.4-0.6-0.8-1-1.2-0.4-0.4-0.8-0.6-1.2-1-0.4-0.2-0.8-0.6-1.4-0.6-0.4-0.2-1-0.4-1.4-0.4-0.6 0-1-0.2-1.6-0.2h-88c-0.6 0-1 0-1.6 0.2-0.6 0-1 0.2-1.4 0.4-0.4 0.2-1 0.4-1.4 0.6-0.4 0.2-0.8 0.6-1.2 1s-0.6 0.8-1 1.2c-0.2 0.4-0.6 0.8-0.8 1.2-0.2 0.4-0.4 1-0.4 1.4 0 0.4-0.2 1-0.2 1.4v75.8c0 1 0.4 1.8 0.8 2.8 0.4 0.8 1 1.6 1.8 2.4 0.8 0.6 1.6 1.2 2.4 1.6 1.6 0.4 2.4 0.6 3.4 0.8m245.4 108.4h88c0.6 0 1 0 1.6-0.2 0.6 0 1-0.2 1.4-0.4 0.4-0.2 1-0.4 1.4-0.6 0.4-0.2 0.8-0.6 1.2-1s0.6-0.8 1-1.2c0.2-0.4 0.6-0.8 0.8-1.2s0.4-1 0.4-1.4c0-0.4 0.2-1 0.2-1.4v-76c0-0.4 0-1-0.2-1.4 0-0.4-0.2-1-0.4-1.4-0.2-0.4-0.4-0.8-0.8-1.2-0.2-0.4-0.6-0.8-1-1.2-0.4-0.4-0.8-0.6-1.2-1-0.4-0.2-0.8-0.6-1.4-0.6s-1-0.4-1.4-0.4c-0.6 0-1-0.2-1.6-0.2h-88c-0.6 0-1 0-1.6 0.2-0.6 0-1 0.2-1.4 0.4-0.4 0.2-1 0.4-1.4 0.6s-0.8 0.6-1.2 1c-0.4 0.4-0.6 0.8-1 1.2-0.2 0.4-0.6 0.8-0.8 1.2-0.2 0.4-0.4 1-0.4 1.4 0 0.4-0.2 1-0.2 1.4v75.8c0 0.4 0 1 0.2 1.4 0 0.4 0.2 1 0.4 1.4 0.2 0.4 0.4 0.8 0.8 1.2 0.2 0.4 0.6 0.8 1 1.2 0.4 0.4 0.8 0.6 1.2 1 0.4 0.2 0.8 0.6 1.4 0.6 0.4 0.2 1 0.4 1.4 0.4 0.6 0.4 1 0.4 1.6 0.4m-121.8 0h88c0.6 0 1 0 1.6-0.2 0.6 0 1-0.2 1.4-0.4 0.4-0.2 1-0.4 1.4-0.6 0.4-0.2 0.8-0.6 1.2-1 0.4-0.4 0.6-0.8 1-1.2 0.2-0.4 0.6-0.8 0.8-1.2 0.2-0.4 0.4-1 0.4-1.4 0-0.4 0.2-1 0.2-1.4v-76c0-0.4 0-1-0.2-1.4 0-0.4-0.2-1-0.4-1.4-0.2-0.4-0.4-0.8-0.8-1.2-0.2-0.4-0.6-0.8-1-1.2-0.4-0.4-0.8-0.6-1.2-1-0.4-0.2-0.8-0.6-1.4-0.6-0.4-0.2-1-0.4-1.4-0.4-0.6 0-1-0.2-1.6-0.2h-88c-0.6 0-1 0-1.6 0.2-0.6 0-1 0.2-1.4 0.4-0.4 0.2-1 0.4-1.4 0.6-0.4 0.2-0.8 0.6-1.2 1-0.4 0.4-0.6 0.8-1 1.2-0.2 0.4-0.6 0.8-0.8 1.2s-0.4 1-0.4 1.4c0 0.4-0.2 1-0.2 1.4v75.8c0 0.4 0 1 0.2 1.4 0 0.4 0.2 1 0.4 1.4 0.2 0.4 0.4 1 0.8 1.4 0.2 0.4 0.6 0.8 1 1.2 0.4 0.4 0.8 0.6 1.2 1 0.4 0.2 0.8 0.6 1.4 0.6 0.4 0.2 1 0.4 1.4 0.4 0.6 0.2 1.2 0.2 1.6 0.2m-123.6 0h88c0.6 0 1 0 1.6-0.2 0.6 0 1-0.2 1.4-0.4 0.4-0.2 1-0.4 1.4-0.6 0.4-0.2 0.8-0.6 1.2-1 0.4-0.4 0.6-0.8 1-1.2 0.2-0.4 0.6-0.8 0.8-1.2s0.4-1 0.4-1.4c0-0.4 0.2-1 0.2-1.4v-76c0-0.4 0-1-0.2-1.4 0-0.4-0.2-1-0.4-1.4-0.2-0.4-0.4-0.8-0.8-1.2-0.2-0.4-0.6-0.8-1-1.2-0.4-0.4-0.8-0.6-1.2-1-0.4-0.2-0.8-0.6-1.4-0.6-0.4-0.2-1-0.4-1.4-0.4-0.6 0-1-0.2-1.6-0.2h-88c-0.6 0-1 0-1.6 0.2-0.6 0-1 0.2-1.4 0.4-0.4 0.2-1 0.4-1.4 0.6-0.4 0.2-0.8 0.6-1.2 1s-0.6 0.8-1 1.2c-0.2 0.4-0.6 0.8-0.8 1.2-0.2 0.4-0.4 1-0.4 1.4 0 0.4-0.2 1-0.2 1.4v75.8c0 1 0.2 2 0.6 2.8 0.4 1 1 1.8 1.6 2.4s1.6 1.2 2.4 1.6 2.4 0.8 3.4 0.8m-121.2 0h88c0.6 0 1 0 1.6-0.2 0.6 0 1-0.2 1.4-0.4 0.4-0.2 1-0.4 1.4-0.6 0.4-0.2 0.8-0.6 1.2-1s0.6-0.8 1-1.2c0.2-0.4 0.6-0.8 0.8-1.2s0.4-1 0.4-1.4c0-0.4 0.2-1 0.2-1.4v-76c0-0.4 0-1-0.2-1.4 0-0.4-0.2-1-0.4-1.4-0.2-0.4-0.4-0.8-0.8-1.2-0.2-0.4-0.6-0.8-1-1.2-0.4-0.4-0.8-0.6-1.2-1-0.4-0.2-0.8-0.6-1.4-0.6-0.4-0.2-1-0.4-1.4-0.4-0.6 0-1-0.2-1.6-0.2h-88c-0.6 0-1 0-1.6 0.2-0.6 0-1 0.2-1.4 0.4-0.4 0.2-1 0.4-1.4 0.6-0.4 0.2-0.8 0.6-1.2 1-0.4 0.4-0.6 0.8-1 1.2-0.2 0.4-0.6 0.8-0.8 1.2-0.2 0.4-0.4 1-0.4 1.4 0 0.4-0.2 1-0.2 1.4v75.8c0 1 0.2 2 0.6 2.8 0.4 1 1 1.8 1.6 2.4 0.8 0.6 1.6 1.2 2.4 1.6 1.4 0.6 2.4 0.8 3.4 0.8" p-id="62044" fill="#ffffff"></path></svg>