<?xml version="1.0" encoding="UTF-8" standalone="no"?>
<svg
   width="588"
   height="389"
   viewBox="0 0 588 389"
   fill="none"
   version="1.1"
   id="svg148"
   sodipodi:docname="home-image.svg"
   inkscape:version="1.3 (0e150ed6c4, 2023-07-21)"
   xmlns:inkscape="http://www.inkscape.org/namespaces/inkscape"
   xmlns:sodipodi="http://sodipodi.sourceforge.net/DTD/sodipodi-0.dtd"
   xmlns="http://www.w3.org/2000/svg"
   xmlns:svg="http://www.w3.org/2000/svg">
  <defs
     id="defs148" />
  <sodipodi:namedview
     id="namedview148"
     pagecolor="#ffffff"
     bordercolor="#000000"
     borderopacity="0.25"
     inkscape:showpageshadow="2"
     inkscape:pageopacity="0.0"
     inkscape:pagecheckerboard="0"
     inkscape:deskcolor="#d1d1d1"
     inkscape:zoom="2.1362468"
     inkscape:cx="294.20758"
     inkscape:cy="194.5"
     inkscape:window-width="1920"
     inkscape:window-height="1027"
     inkscape:window-x="-8"
     inkscape:window-y="-8"
     inkscape:window-maximized="1"
     inkscape:current-layer="svg148" />
  <path
     fill-rule="evenodd"
     clip-rule="evenodd"
     d="M451.423 181.994H571.016C574.427 181.994 577.216 184.785 577.216 188.195V249.039C577.216 252.449 574.426 255.239 571.016 255.239H451.423C448.012 255.239 445.221 252.449 445.221 249.039V188.195C445.221 184.784 448.012 181.994 451.423 181.994Z"
     fill="#EFEFF8"
     id="path1" />
  <path
     fill-rule="evenodd"
     clip-rule="evenodd"
     d="M511.962 378.309C666.2 256.199 486.065 123.509 409.935 204.902C486.683 -57.5075 8.13143 -77.5456 116.605 201.048C116.605 201.048 -67.0451 207.214 45.1861 369.06L511.962 378.309Z"
     fill="#1683F7"
     id="path2" />
  <path
     fill-rule="evenodd"
     clip-rule="evenodd"
     d="M377.083 365.714C393.744 338.362 398.685 314.064 383.966 300.174C367.616 284.745 329.989 308.116 292.45 365.714H377.083Z"
     fill="#BAB2D8"
     id="path3" />
  <path
     fill-rule="evenodd"
     clip-rule="evenodd"
     d="M312.497 365.724H310.875L313.56 347.675C313.626 347.235 314.036 346.934 314.475 347.001C314.913 347.068 315.215 347.478 315.148 347.916L312.497 365.724ZM315.835 365.724C317.435 363.68 319.021 361.704 320.592 359.8C323.874 360.225 336.404 361.987 350.472 365.724H356.404C341.306 361.246 326.825 359.03 321.806 358.341C327.718 351.258 333.396 345.125 338.706 339.851C342.762 339.988 361.125 340.859 375.782 345.844C376.2 345.985 376.656 345.763 376.798 345.343C376.941 344.924 376.718 344.468 376.299 344.326C362.824 339.744 346.311 338.589 340.278 338.308C342.482 336.16 344.615 334.165 346.675 332.306C349.867 331.999 361.792 331.167 377.978 333.918C378.414 333.993 378.83 333.7 378.906 333.262C378.98 332.825 378.687 332.411 378.25 332.335C364.432 329.988 353.639 330.224 348.653 330.543C365.324 315.876 376.483 310.761 376.574 310.717C377.173 310.431 377.429 309.713 377.143 309.113C376.856 308.512 376.139 308.257 375.538 308.544C375.478 308.572 370.569 310.823 362.419 316.572C364.25 312.991 366.867 308.033 367.676 307.283C368 306.983 368.019 306.475 367.719 306.151C367.419 305.825 366.912 305.807 366.587 306.108C365.341 307.262 361.047 315.707 359.583 318.626C356.295 321.056 352.591 323.98 348.539 327.482L353.215 310.478C353.333 310.052 353.081 309.611 352.656 309.492C352.229 309.374 351.788 309.624 351.668 310.052L346.35 329.402C343.582 331.864 340.67 334.582 337.639 337.572L342.349 317.581C342.452 317.151 342.186 316.718 341.754 316.614C341.325 316.512 340.891 316.779 340.788 317.208L335.486 339.724C330.967 344.291 326.208 349.447 321.275 355.275L324.731 334.846C324.806 334.41 324.513 333.993 324.076 333.918C323.639 333.842 323.223 334.135 323.147 334.573L319.232 357.726C317.122 360.273 314.984 362.933 312.824 365.724H315.835Z"
     fill="white"
     id="path4" />
  <path
     fill-rule="evenodd"
     clip-rule="evenodd"
     d="M474.226 209.869C474.222 209.93 474.215 209.992 474.201 210.054C474.196 210.078 472.559 217.855 472.597 225.757C488.997 218.724 501.133 215.027 506 213.659C500.995 212.694 495.939 211.894 490.854 211.268C485.358 210.593 479.807 210.122 474.226 209.869ZM440.386 211.202C440.399 211.304 440.399 211.411 440.385 211.518C440.379 211.564 438.216 226.932 440.015 241.738C450.969 235.67 461.198 230.736 470.235 226.782C470.057 219.023 471.561 211.13 471.832 209.774C461.277 209.416 450.732 209.861 440.386 211.202ZM400.85 221.419C400.902 221.544 400.933 221.679 400.94 221.821C400.944 221.908 402.394 250.915 405.943 263.154C416.897 255.386 427.63 248.703 437.777 242.988C435.894 228.839 437.671 213.931 437.983 211.53C432.498 212.316 427.076 213.358 421.742 214.669C414.593 216.425 407.605 218.665 400.85 221.419ZM370.616 238.633C370.8 238.866 370.898 239.166 370.869 239.483C370.863 239.542 368.863 259.059 377.643 285.489C386.399 277.805 395.21 270.868 403.897 264.614C400.352 253.341 398.788 226.089 398.588 222.365C391.613 225.352 384.895 228.901 378.517 233.051C375.822 234.804 373.186 236.665 370.616 238.633ZM350.592 257.976C350.888 258.212 351.068 258.588 351.038 258.995C349.792 275.55 354.3 299.179 355.804 306.456C362.346 299.579 369.008 293.169 375.71 287.197C367.648 263.476 368.134 244.956 368.413 240.364C362.007 245.51 356.035 251.366 350.592 257.976ZM334.395 283.157C334.811 283.357 335.091 283.789 335.07 284.281C334.229 303.038 336.618 320.738 337.639 327.239C342.907 320.669 348.317 314.449 353.816 308.563C352.893 304.293 347.609 278.863 348.554 260.518C346.172 263.57 343.899 266.773 341.744 270.137C339.113 274.24 336.658 278.578 334.395 283.157ZM323.064 314.231C323.587 314.357 323.974 314.828 323.974 315.388C323.974 315.444 323.912 332.726 325.78 342.99C328.998 338.431 332.29 334.019 335.642 329.753C335.06 326.396 331.998 307.608 332.596 286.935C328.781 295.26 325.575 304.343 323.064 314.231ZM317.044 356.027C319.288 352.493 321.578 349.041 323.908 345.67C322.254 338.684 321.782 326.856 321.646 320.237C321.475 321.025 321.306 321.821 321.142 322.618C320.008 328.151 319.08 333.92 318.373 339.931C317.766 345.095 317.319 350.457 317.044 356.027ZM371.587 367.218C353.966 362.376 330.499 350.095 325.567 347.463C323.04 351.133 320.562 354.898 318.135 358.763C337.767 365.571 355.535 368.051 371.587 367.218ZM402.921 360.94C394.681 357.737 350.712 340.483 337.16 331.676C333.68 336.124 330.265 340.73 326.93 345.499C332.709 348.575 358.641 362.067 375.953 365.851C376.446 365.957 376.802 366.352 376.878 366.823C386.142 365.904 394.813 363.873 402.921 360.94ZM432.588 344.784C425.769 341.778 365.519 315.215 355.376 310.379C349.68 316.485 344.082 322.952 338.64 329.803C353.52 339.383 404.961 359.174 405.114 359.233C405.42 359.35 405.65 359.582 405.774 359.862C415.528 356.016 424.45 350.864 432.588 344.784ZM454.969 323.881L377.284 288.973C370.483 295.035 363.722 301.554 357.086 308.559C369.612 314.445 433.99 342.806 434.184 342.891C434.363 342.97 434.512 343.087 434.628 343.229C442.059 337.443 448.825 330.89 454.969 323.881ZM473.969 298.042C465.797 292.612 411.554 269.091 405.42 266.437C396.761 272.665 387.976 279.581 379.244 287.24L456.307 321.868C456.402 321.911 456.491 321.966 456.57 322.03C460.589 317.309 464.34 312.401 467.825 307.391C469.972 304.305 472.017 301.182 473.969 298.042ZM491.199 265.18L439.116 244.95C429.097 250.584 418.498 257.173 407.679 264.827C417.956 269.284 467.084 290.683 475.212 296.023C481.541 285.61 486.835 275.073 491.199 265.18ZM501.417 238.825L501.389 238.813C494.005 235.439 474.407 229.674 471.485 228.822C462.618 232.69 452.576 237.517 441.816 243.448L492.151 262.999C495.954 254.186 499.017 245.942 501.417 238.825ZM508.213 215.519C505.183 216.322 492.714 219.812 474.913 227.348C481.3 229.252 495.776 233.679 502.172 236.556C505.581 226.186 507.501 218.53 508.213 215.519ZM314.359 358.267C314.62 351.844 315.108 345.636 315.814 339.642C316.53 333.552 317.47 327.71 318.618 322.109C322.915 301.155 330.133 283.477 339.573 268.75C349.787 252.813 362.598 240.331 377.116 230.887C390.57 222.137 405.477 216.007 421.134 212.158C437.928 208.032 455.594 206.532 473.256 207.243C479.216 207.483 485.198 207.977 491.166 208.711C497.206 209.455 503.207 210.442 509.136 211.657L509.137 211.652C509.807 211.788 510.361 212.186 510.713 212.718C511.065 213.248 511.215 213.911 511.077 214.582L511.034 214.752C510.526 217.057 499.451 266.451 469.945 308.863C440.098 351.762 391.477 387.547 316.008 360.761C315.469 360.569 315.037 360.21 314.749 359.762C314.468 359.326 314.328 358.802 314.361 358.267H314.359Z"
     fill="#DAD5EA"
     id="path5" />
  <path
     fill-rule="evenodd"
     clip-rule="evenodd"
     d="M249.459 347.48C244.141 335.108 232.055 313.874 205.625 289.854C163.818 251.858 135.386 206.908 155.682 187.755C175.6 168.959 236.703 225.226 273.285 342.581C263.897 345.321 256.036 346.868 249.459 347.48Z"
     fill="#DAD5EA"
     id="path6" />
  <path
     fill-rule="evenodd"
     clip-rule="evenodd"
     d="M260.683 339.672C259.381 339.343 255.895 338.644 251.054 339.075C250.716 339.105 250.417 338.856 250.386 338.518C250.355 338.179 250.605 337.882 250.943 337.851C255.184 337.472 258.461 337.94 260.212 338.305C259.534 336.358 258.851 334.433 258.164 332.533C256.076 332.067 249.337 330.576 246.769 330.207C246.432 330.158 246.199 329.847 246.247 329.51C246.295 329.173 246.608 328.939 246.945 328.988C249.303 329.327 255.021 330.573 257.669 331.161C256.373 327.616 255.061 324.165 253.733 320.794C251.696 320.423 245.363 319.344 238.213 318.885C237.874 318.864 237.615 318.57 237.638 318.231C237.659 317.891 237.952 317.633 238.291 317.655C244.775 318.071 250.599 318.993 253.209 319.448C251.862 316.058 250.499 312.759 249.125 309.542C246.331 309.032 237.232 307.471 226.962 306.81C226.622 306.789 226.363 306.496 226.386 306.156C226.407 305.818 226.701 305.558 227.04 305.582C236.543 306.192 245.038 307.564 248.54 308.184C246.723 303.973 244.887 299.914 243.036 295.994C240.15 295.286 228.151 292.556 218.511 293.646C218.173 293.685 217.867 293.442 217.829 293.105C217.789 292.767 218.032 292.461 218.369 292.421C227.351 291.408 238.296 293.627 242.37 294.569C240.083 289.777 237.775 285.212 235.459 280.847C231.447 280.274 215.237 278.285 206.703 282.075C206.393 282.212 206.029 282.071 205.892 281.76C205.754 281.451 205.896 281.087 206.207 280.949C214.485 277.27 229.528 278.818 234.736 279.503C232.267 274.901 229.788 270.531 227.31 266.389C224.284 266.465 211.574 266.98 199.032 270.42C198.706 270.51 198.368 270.316 198.277 269.989C198.186 269.664 198.378 269.325 198.706 269.233C210.586 265.975 222.603 265.313 226.59 265.18C225.117 262.744 223.648 260.385 222.182 258.108C219.295 258.118 206.949 258.449 189.807 262.879C189.478 262.963 189.142 262.767 189.056 262.438C188.97 262.108 189.168 261.773 189.499 261.686C205.49 257.554 217.385 256.962 221.386 256.888C217.895 251.519 214.432 246.574 211.033 242.048C207.295 242.504 188.333 244.956 177.805 249.023C177.488 249.145 177.132 248.987 177.01 248.671C176.888 248.354 177.046 247.998 177.362 247.876C187.474 243.97 205.148 241.549 210.171 240.915C208.184 238.298 206.221 235.816 204.289 233.473C201.08 233.889 186.344 235.97 172.331 240.732C172.01 240.843 171.659 240.67 171.551 240.35C171.441 240.027 171.612 239.678 171.934 239.568C185.14 235.082 198.969 232.956 203.36 232.354C198.824 226.923 194.47 222.22 190.397 218.175C187.287 218.277 173.204 218.947 161.965 222.769C161.643 222.877 161.294 222.707 161.185 222.387C161.074 222.065 161.245 221.715 161.567 221.605C171.9 218.092 184.564 217.204 189.192 216.991C187.502 215.342 185.866 213.814 184.286 212.388C181.837 212.152 172.692 211.514 160.279 213.623C159.944 213.681 159.625 213.456 159.568 213.12C159.51 212.786 159.735 212.466 160.07 212.409C170.667 210.607 178.944 210.79 182.769 211.035C169.983 199.787 161.426 195.864 161.357 195.83C160.896 195.612 160.701 195.06 160.92 194.599C161.139 194.139 161.69 193.944 162.15 194.164C162.197 194.185 165.96 195.911 172.211 200.321C170.807 197.576 168.801 193.771 168.18 193.196C167.931 192.966 167.916 192.577 168.148 192.328C168.378 192.08 168.767 192.064 169.015 192.294C169.972 193.181 173.265 199.658 174.387 201.896C176.908 203.76 179.748 206.003 182.856 208.689L179.27 195.646C179.181 195.321 179.373 194.981 179.7 194.891C180.027 194.8 180.366 194.993 180.456 195.32L184.535 210.161C186.657 212.047 188.891 214.134 191.215 216.426L187.603 201.095C187.524 200.764 187.728 200.433 188.06 200.353C188.388 200.274 188.72 200.479 188.799 200.809L192.868 218.078C196.332 221.58 199.982 225.534 203.765 230.003L201.115 214.336C201.057 214.002 201.282 213.683 201.617 213.623C201.952 213.565 202.271 213.791 202.329 214.125L205.332 231.881C207.053 233.957 208.793 236.131 210.556 238.417L208.464 224.358C208.413 224.024 208.644 223.709 208.981 223.658C209.317 223.606 209.631 223.838 209.682 224.175L212.103 240.447C215.355 244.755 218.667 249.433 222.006 254.502L221.016 240.984C220.991 240.647 221.245 240.352 221.584 240.327C221.924 240.301 222.219 240.555 222.244 240.893L223.396 256.625C224.713 258.664 226.033 260.772 227.356 262.934L227.324 252.757C227.322 252.416 227.596 252.142 227.936 252.14C228.275 252.138 228.551 252.414 228.553 252.752L228.591 264.972C231.039 269.044 233.489 273.341 235.931 277.858L236.258 266.586C236.269 266.248 236.552 265.979 236.891 265.99C237.231 266.001 237.498 266.283 237.488 266.623L237.098 280.023C239.226 284.031 241.344 288.218 243.446 292.58L244.178 282.655C244.201 282.316 244.496 282.061 244.835 282.083C245.175 282.108 245.431 282.404 245.406 282.743L244.517 294.822C246.341 298.673 248.152 302.661 249.942 306.793L251.634 298.041C251.697 297.708 252.019 297.488 252.353 297.551C252.687 297.614 252.906 297.937 252.843 298.272L250.809 308.796C252.098 311.81 253.376 314.903 254.642 318.071L257.072 310.808C257.18 310.487 257.528 310.312 257.85 310.42C258.173 310.528 258.347 310.878 258.239 311.201L255.344 319.848C256.502 322.785 257.652 325.782 258.787 328.851L260.629 324.212C260.754 323.895 261.113 323.743 261.428 323.867C261.744 323.994 261.899 324.352 261.774 324.669L259.424 330.586C260.267 332.891 261.101 335.242 261.928 337.62L264.717 334.069C264.927 333.803 265.314 333.756 265.58 333.966C265.846 334.175 265.893 334.563 265.684 334.829L262.406 339.001C263.078 340.951 263.746 342.927 264.407 344.926C263.797 345.071 263.192 345.21 262.596 345.342C261.963 343.43 261.325 341.541 260.683 339.672Z"
     fill="white"
     id="path7" />
  <path
     fill-rule="evenodd"
     clip-rule="evenodd"
     d="M70.5459 250.239C70.5507 250.301 70.5613 250.363 70.5757 250.424C70.5815 250.447 72.4848 258.163 72.7159 266.062C56.0856 259.594 43.83 256.311 38.9197 255.112C43.8898 253.977 48.9137 253.004 53.9743 252.206C59.4452 251.342 64.9777 250.682 70.5459 250.239ZM104.41 250.417C104.4 250.519 104.404 250.626 104.423 250.732C104.431 250.777 107.116 266.06 105.824 280.921C94.6688 275.231 84.278 270.648 75.1114 267.005C75.0237 259.245 73.2524 251.409 72.9346 250.064C83.4708 249.346 94.0254 249.429 104.41 250.417ZM144.274 259.277C144.226 259.403 144.2 259.539 144.197 259.681C144.196 259.769 143.738 288.807 140.608 301.161C129.395 293.771 118.44 287.459 108.104 282.093C109.503 267.887 107.217 253.049 106.823 250.661C112.331 251.261 117.786 252.116 123.162 253.243C130.367 254.754 137.427 256.754 144.274 259.277ZM175.076 275.449C174.901 275.686 174.814 275.991 174.855 276.306C174.862 276.363 177.527 295.801 169.655 322.516C160.641 315.137 151.597 308.503 142.703 302.552C145.861 291.163 146.493 263.874 146.565 260.143C153.639 262.891 160.473 266.209 166.989 270.138C169.744 271.798 172.441 273.567 175.076 275.449ZM195.75 294.095C195.461 294.342 195.295 294.722 195.339 295.13C197.149 311.632 193.451 335.401 192.195 342.724C185.421 336.075 178.546 329.897 171.645 324.158C178.893 300.177 177.774 281.683 177.336 277.102C183.916 282.027 190.086 287.675 195.75 294.095ZM55.4711 306.096L106.833 284.101C117.038 289.389 127.855 295.612 138.931 302.891C128.812 307.696 80.4426 330.76 72.5021 336.374C65.8214 326.187 60.1695 315.836 55.4711 306.096ZM44.3598 280.107L44.3868 280.091C51.6511 276.468 71.0419 270.038 73.9324 269.087C82.9266 272.651 93.1277 277.132 104.082 282.691L54.4453 303.95C50.3431 295.273 46.9999 287.136 44.3598 280.107ZM36.7718 257.046C39.827 257.745 52.4072 260.806 70.4563 267.731C64.1368 269.853 49.821 274.77 43.5276 277.864C39.7654 267.615 37.5857 260.029 36.7718 257.046ZM230.767 360.877C230.486 359.605 230.196 358.345 229.895 357.097C224.886 336.304 217.067 318.885 207.131 304.487C196.378 288.908 183.149 276.871 168.316 267.928C154.572 259.643 139.464 254.025 123.685 250.713C106.759 247.165 89.0525 246.267 71.4243 247.582C65.4766 248.025 59.5155 248.724 53.5755 249.661C47.5643 250.609 41.6003 251.801 35.7181 253.219L35.7171 253.213C35.0506 253.373 34.5103 253.789 34.176 254.332C33.8428 254.875 33.7166 255.543 33.8746 256.207L33.9247 256.374C34.5112 258.661 47.2676 307.649 78.2051 349.028C81.2247 353.067 84.4196 357.032 87.7898 360.877H91.2485C87.3582 356.559 83.701 352.07 80.274 347.485C78.0221 344.474 75.8713 341.422 73.813 338.353C81.7959 332.645 135.202 307.287 141.244 304.423C150.11 310.353 159.125 316.964 168.114 324.32L93.67 360.877H99.0783L170.131 325.986C177.136 331.813 184.117 338.097 190.985 344.87C185.985 347.43 172.572 353.987 158.387 360.877H163.822C176.998 354.468 188.788 348.693 192.758 346.632C197.284 351.163 201.759 355.908 206.158 360.877H209.329C204.392 355.227 199.355 349.861 194.255 344.764C195.033 340.463 199.447 314.867 197.874 296.566C200.359 299.535 202.74 302.659 205.008 305.947C207.777 309.957 210.379 314.21 212.799 318.709C212.388 318.922 212.123 319.365 212.16 319.855C213.511 336.912 212.15 353.181 211.294 360.877H213.686C214.506 353.404 215.737 338.444 214.725 322.423C218.821 330.612 222.337 339.581 225.182 349.376C224.665 349.52 224.293 350.004 224.313 350.566C224.314 350.594 224.484 355.099 224.449 360.877H226.825C226.839 358.82 226.826 356.925 226.804 355.332C227.003 356.114 227.199 356.902 227.391 357.695C227.643 358.747 227.89 359.806 228.128 360.877H230.767Z"
     fill="#DAD5EA"
     id="path8" />
  <path
     fill-rule="evenodd"
     clip-rule="evenodd"
     d="M240.197 358.904C235.264 350.566 225.565 337.806 207.557 325.096C176.998 303.525 154.492 274.953 165.942 258.074C176.972 241.813 220.28 272.415 254.329 349.28L240.251 358.868L240.197 358.904Z"
     fill="#C0B7DA"
     id="path9" />
  <path
     fill-rule="evenodd"
     clip-rule="evenodd"
     d="M173.485 265.315C172.864 264.991 172.621 264.225 172.945 263.604C173.27 262.981 174.036 262.74 174.658 263.064C174.701 263.085 178.377 264.952 184.217 269.012L180.699 262.629C180.472 262.221 180.622 261.705 181.03 261.481C181.438 261.256 181.953 261.406 182.178 261.814L187.407 271.3C190.086 273.275 193.081 275.625 196.301 278.382L193.413 270.094C193.259 269.653 193.492 269.169 193.933 269.014C194.375 268.86 194.858 269.094 195.013 269.535L198.883 280.641C202.184 283.587 205.676 286.929 209.264 290.705L207.025 283.419C206.887 282.972 207.137 282.499 207.584 282.361C208.03 282.222 208.504 282.472 208.642 282.919L211.91 293.555C215.602 297.612 219.369 302.112 223.102 307.09L221.735 299.909C221.647 299.452 221.947 299.009 222.404 298.921C222.862 298.832 223.306 299.132 223.394 299.588L225.426 310.261C228.863 315.048 232.255 320.244 235.523 325.867L235.671 321.537C235.687 321.07 236.08 320.704 236.546 320.72C237.013 320.737 237.379 321.13 237.364 321.596L237.122 328.672C239.555 333.02 241.911 337.612 244.151 342.464L244.47 338.143C244.504 337.676 244.911 337.326 245.376 337.359C245.843 337.396 246.193 337.801 246.159 338.268L245.61 345.699C246.675 348.111 247.709 350.588 248.711 353.121L246.558 354.588C245.56 352.044 244.53 349.563 243.47 347.142C241.548 346.31 236.887 344.406 234.504 344.429C234.037 344.435 233.654 344.06 233.647 343.594C233.641 343.128 234.015 342.742 234.482 342.736C236.587 342.716 240.079 343.945 242.466 344.897C241.612 343.013 240.743 341.164 239.856 339.355C237.869 338.724 232.925 337.304 229.065 337.468C228.598 337.487 228.203 337.124 228.184 336.658C228.163 336.191 228.527 335.797 228.995 335.778C232.306 335.636 236.311 336.57 238.833 337.282C236.975 333.598 235.053 330.081 233.088 326.716C230.047 326.467 220.377 325.782 215.949 326.748C215.493 326.848 215.041 326.557 214.941 326.103C214.841 325.647 215.13 325.194 215.586 325.094C219.742 324.188 228.102 324.649 232.036 324.94C229.905 321.377 227.727 317.998 225.523 314.795C222.523 314.475 212.67 313.61 205.109 315.114C204.651 315.203 204.205 314.905 204.115 314.447C204.023 313.989 204.322 313.544 204.78 313.451C211.589 312.098 220.166 312.606 224.258 312.972C223.155 311.408 222.046 309.888 220.935 308.41C217.908 307.903 207.547 306.456 196.376 308.19C195.915 308.263 195.481 307.947 195.408 307.486C195.334 307.025 195.65 306.591 196.111 306.517C205.892 305.001 215.076 305.869 219.461 306.476C215.384 301.199 211.29 296.493 207.317 292.32C203.529 292.627 188.794 293.93 181.548 296.069C181.1 296.202 180.629 295.946 180.497 295.497C180.364 295.05 180.621 294.58 181.068 294.449C187.777 292.467 200.592 291.201 205.802 290.746C202.801 287.672 199.882 284.908 197.101 282.433C193.501 283.087 180.206 285.507 177.014 286.287C176.562 286.399 176.103 286.122 175.992 285.668C175.88 285.216 176.157 284.757 176.61 284.645C179.535 283.932 190.677 281.884 195.48 281.007C191.815 277.829 188.42 275.168 185.457 273.003C182.1 273.833 174.015 275.848 172.037 276.485C171.592 276.63 171.115 276.385 170.971 275.94C170.828 275.495 171.073 275.018 171.518 274.873C173.277 274.306 179.811 272.662 183.653 271.708C177.466 267.338 173.53 265.337 173.485 265.315Z"
     fill="#DAD5EA"
     id="path10" />
  <path
     fill-rule="evenodd"
     clip-rule="evenodd"
     d="M508.199 40.7711H404.599C397.074 40.7711 390.918 46.9297 390.918 54.4531V159.895C390.918 160.526 391.278 161.065 391.86 161.308C392.445 161.548 393.079 161.422 393.526 160.975L416.839 137.661H508.199C515.722 137.661 521.88 131.505 521.88 123.979V54.4531C521.88 46.9278 515.721 40.7711 508.199 40.7711Z"
     fill="#EFEFF8"
     id="path11" />
  <path
     fill-rule="evenodd"
     clip-rule="evenodd"
     d="M528.527 372.418C528.527 372.418 585.491 341.106 580.826 269.815C580.826 269.815 580.661 267.982 581.911 267.9C583.159 267.817 602.981 325.364 561.007 368.004L528.527 372.418Z"
     fill="#EFEFF8"
     id="path12" />
  <path
     fill-rule="evenodd"
     clip-rule="evenodd"
     d="M502.38 34.6004H398.78C391.257 34.6004 385.1 40.758 385.1 48.2824V153.724C385.1 154.355 385.46 154.893 386.043 155.136C386.625 155.376 387.261 155.251 387.708 154.803L411.021 131.49H502.38C509.903 131.49 516.061 125.333 516.061 117.807V48.2824C516.061 40.7571 509.903 34.6004 502.38 34.6004Z"
     fill="#674F9C"
     id="path13" />
  <path
     fill-rule="evenodd"
     clip-rule="evenodd"
     d="M404.186 113.891H458.485C460.958 113.891 462.983 111.867 462.983 109.394V68.1701C462.983 65.6967 460.958 63.673 458.485 63.673H456.278V61.579C456.278 60.899 455.722 60.3414 455.041 60.3414H438.636C437.954 60.3414 437.397 60.899 437.397 61.579V63.673H404.186C401.712 63.673 399.689 65.6967 399.689 68.1701V109.394C399.689 111.867 401.712 113.891 404.186 113.891Z"
     fill="#FAB52E"
     id="path14" />
  <path
     fill-rule="evenodd"
     clip-rule="evenodd"
     d="M442.073 113.886H407.762C405.747 113.886 404.097 112.237 404.097 110.221V75.2008C404.097 73.1858 405.747 71.5368 407.762 71.5368H442.073C444.089 71.5368 445.738 73.1858 445.738 75.2008V110.221C445.738 112.237 444.089 113.886 442.073 113.886Z"
     fill="white"
     id="path15" />
  <path
     fill-rule="evenodd"
     clip-rule="evenodd"
     d="M456.167 113.883H496.476C499.225 113.883 501.473 111.635 501.473 108.886V53.8773C501.473 51.1294 499.225 48.8813 496.476 48.8813H456.167C453.419 48.8813 451.171 51.1294 451.171 53.8773V108.886C451.171 111.635 453.419 113.883 456.167 113.883Z"
     fill="white"
     id="path16" />
  <path
     fill-rule="evenodd"
     clip-rule="evenodd"
     d="M456.167 113.884H464.223C466.697 113.884 469.622 111.859 470.724 109.387L486.527 73.9086C487.629 71.4352 486.507 69.4115 484.033 69.4115H481.398L482.391 67.1846C482.793 66.2812 482.382 65.5424 481.48 65.5424H463.18C462.278 65.5424 461.211 66.2812 460.808 67.1846L459.815 69.4115H451.171V108.887C451.171 111.636 453.419 113.884 456.167 113.884Z"
     fill="#EFEFF8"
     id="path17" />
  <path
     fill-rule="evenodd"
     clip-rule="evenodd"
     d="M409.616 113.884H459.752C462.225 113.884 465.15 111.859 466.252 109.387L482.055 73.9086C483.157 71.4352 482.035 69.4115 479.562 69.4115H476.926L477.918 67.1846C478.321 66.2812 477.911 65.5424 477.008 65.5424H458.709C457.806 65.5424 456.739 66.2812 456.336 67.1846L455.343 69.4115H429.426C426.953 69.4115 424.028 71.4352 422.925 73.9086L407.122 109.387C406.02 111.859 407.142 113.884 409.616 113.884Z"
     fill="#FDC848"
     id="path18" />
  <path
     fill-rule="evenodd"
     clip-rule="evenodd"
     d="M447.391 77.3439C443.562 77.3439 439.731 78.8041 436.809 81.7264C433.888 84.6487 432.427 88.4784 432.427 92.307C432.427 96.1376 433.888 99.9672 436.809 102.889C439.731 105.811 443.562 107.273 447.391 107.273C451.22 107.273 455.05 105.811 457.972 102.889C460.894 99.9672 462.355 96.1376 462.355 92.307C462.355 88.4784 460.894 84.6487 457.972 81.7264C455.05 78.8041 451.22 77.3439 447.391 77.3439ZM435.041 79.958C438.45 76.5484 442.921 74.8426 447.391 74.8426C451.861 74.8426 456.331 76.5484 459.741 79.958C463.151 83.3677 464.856 87.8388 464.856 92.307C464.856 96.7781 463.15 101.247 459.741 104.658C456.331 108.069 451.861 109.773 447.391 109.772C442.921 109.773 438.45 108.069 435.041 104.658C431.63 101.247 429.926 96.7781 429.926 92.307C429.926 87.8388 431.63 83.3677 435.041 79.958Z"
     fill="#180C39"
     id="path19" />
  <path
     fill-rule="evenodd"
     clip-rule="evenodd"
     d="M457.973 104.658C457.485 104.169 457.485 103.377 457.973 102.888C458.462 102.401 459.254 102.401 459.742 102.888L463.875 107.023C464.364 107.511 464.364 108.303 463.875 108.791C463.387 109.28 462.596 109.28 462.107 108.791L457.973 104.658Z"
     fill="#180C39"
     id="path20" />
  <path
     fill-rule="evenodd"
     clip-rule="evenodd"
     d="M462.261 110.76C461.285 109.783 461.285 108.2 462.261 107.223C463.239 106.246 464.823 106.246 465.8 107.223L484.869 126.292C485.847 127.269 485.847 128.853 484.869 129.83C483.893 130.807 482.309 130.807 481.331 129.83L462.261 110.76Z"
     fill="#180C39"
     id="path21" />
  <path
     fill-rule="evenodd"
     clip-rule="evenodd"
     d="M437.486 85.2C437.221 85.5689 436.707 85.6527 436.338 85.3878C435.969 85.1219 435.884 84.6076 436.15 84.2387C436.37 83.9324 436.602 83.6377 436.84 83.3574L436.88 83.3141C437.129 83.0232 437.369 82.7621 437.599 82.5329C437.921 82.2112 438.444 82.2112 438.766 82.5329C439.09 82.8565 439.09 83.3795 438.766 83.7012C438.523 83.9449 438.311 84.1722 438.129 84.3832L438.093 84.4285C437.876 84.6847 437.673 84.9418 437.486 85.2ZM438.766 100.963C439.09 101.285 439.09 101.808 438.766 102.131C438.444 102.454 437.921 102.454 437.599 102.131C436.275 100.807 435.274 99.2769 434.595 97.6385C433.892 95.9404 433.541 94.1345 433.541 92.3314C433.541 91.4915 433.619 90.6429 433.775 89.7972C433.93 88.9699 434.16 88.1502 434.468 87.3498C434.63 86.926 435.106 86.7131 435.528 86.8749C435.953 87.0367 436.165 87.5126 436.004 87.9373C435.735 88.6356 435.531 89.359 435.395 90.0939C435.26 90.824 435.192 91.5743 435.192 92.3314C435.192 93.9283 435.502 95.5214 436.117 97.0125C436.711 98.4457 437.595 99.7912 438.766 100.963ZM457.672 98.9292C457.92 98.5458 458.428 98.4341 458.813 98.6797C459.195 98.9263 459.308 99.4358 459.061 99.8192C458.796 100.229 458.507 100.631 458.192 101.021C457.875 101.414 457.544 101.785 457.197 102.131C456.875 102.454 456.351 102.454 456.029 102.131C455.706 101.808 455.706 101.285 456.029 100.963C456.351 100.641 456.645 100.315 456.908 99.9897C457.184 99.6477 457.438 99.2942 457.672 98.9292ZM456.029 83.7012C455.706 83.3795 455.706 82.8565 456.029 82.5329C456.351 82.2112 456.875 82.2112 457.197 82.5329C458.521 83.8563 459.522 85.3878 460.201 87.0262C460.903 88.7194 461.252 90.5254 461.252 92.3314H461.256C461.256 93.624 461.077 94.9166 460.716 96.1697C460.592 96.6079 460.134 96.8622 459.696 96.7379C459.258 96.6137 459.003 96.1562 459.128 95.7179C459.445 94.6151 459.604 93.4747 459.604 92.3314H459.606C459.606 90.7412 459.297 89.1481 458.678 87.6522C458.084 86.22 457.202 84.8734 456.029 83.7012Z"
     fill="white"
     id="path22" />
  <path
     fill-rule="evenodd"
     clip-rule="evenodd"
     d="M456.583 53.8179H496.06C496.564 53.8179 496.977 54.2292 496.977 54.7339C496.977 55.2377 496.564 55.6499 496.06 55.6499H456.583C456.079 55.6499 455.667 55.2377 455.667 54.7339C455.667 54.2292 456.079 53.8179 456.583 53.8179Z"
     fill="#2D2B70"
     id="path23" />
  <path
     fill-rule="evenodd"
     clip-rule="evenodd"
     d="M456.583 59.5479H496.06C496.564 59.5479 496.977 59.9602 496.977 60.4639C496.977 60.9676 496.564 61.3799 496.06 61.3799H456.583C456.079 61.3799 455.667 60.9676 455.667 60.4639C455.667 59.9602 456.079 59.5479 456.583 59.5479Z"
     fill="#2D2B70"
     id="path24" />
  <path
     fill-rule="evenodd"
     clip-rule="evenodd"
     d="M488.626 65.895H496.08C496.585 65.895 496.997 66.3073 496.997 66.811C496.997 67.3148 496.585 67.727 496.08 67.727H488.626C488.122 67.727 487.711 67.3148 487.711 66.811C487.711 66.3073 488.122 65.895 488.626 65.895Z"
     fill="#2D2B70"
     id="path25" />
  <path
     fill-rule="evenodd"
     clip-rule="evenodd"
     d="M488.626 72.3743H496.08C496.585 72.3743 496.997 72.7866 496.997 73.2913C496.997 73.795 496.585 74.2073 496.08 74.2073H488.626C488.122 74.2073 487.711 73.795 487.711 73.2913C487.711 72.7866 488.122 72.3743 488.626 72.3743Z"
     fill="#2D2B70"
     id="path26" />
  <path
     fill-rule="evenodd"
     clip-rule="evenodd"
     d="M488.626 78.8536H496.08C496.585 78.8536 496.997 79.2659 496.997 79.7696C496.997 80.2734 496.585 80.6847 496.08 80.6847H488.626C488.122 80.6847 487.711 80.2734 487.711 79.7696C487.711 79.2659 488.122 78.8536 488.626 78.8536Z"
     fill="#2D2B70"
     id="path27" />
  <path
     fill-rule="evenodd"
     clip-rule="evenodd"
     d="M488.626 85.377H496.08C496.585 85.377 496.997 85.7893 496.997 86.293C496.997 86.7968 496.585 87.209 496.08 87.209H488.626C488.122 87.209 487.711 86.7968 487.711 86.293C487.711 85.7893 488.122 85.377 488.626 85.377Z"
     fill="#2D2B70"
     id="path28" />
  <path
     fill-rule="evenodd"
     clip-rule="evenodd"
     d="M488.626 91.8563H496.08C496.585 91.8563 496.997 92.2685 496.997 92.7732C496.997 93.277 496.585 93.6883 496.08 93.6883H488.626C488.122 93.6883 487.711 93.277 487.711 92.7732C487.711 92.2685 488.122 91.8563 488.626 91.8563Z"
     fill="#2D2B70"
     id="path29" />
  <path
     fill-rule="evenodd"
     clip-rule="evenodd"
     d="M488.626 98.3797H496.08C496.585 98.3797 496.997 98.791 496.997 99.2957C496.997 99.7994 496.585 100.212 496.08 100.212H488.626C488.122 100.212 487.711 99.7994 487.711 99.2957C487.711 98.791 488.122 98.3797 488.626 98.3797Z"
     fill="#2D2B70"
     id="path30" />
  <path
     fill-rule="evenodd"
     clip-rule="evenodd"
     d="M477.167 104.859H496.073C496.578 104.859 496.99 105.271 496.99 105.774C496.99 106.279 496.578 106.691 496.073 106.691H477.167C476.663 106.691 476.251 106.279 476.251 105.774C476.251 105.271 476.663 104.859 477.167 104.859Z"
     fill="#2D2B70"
     id="path31" />
  <path
     fill-rule="evenodd"
     clip-rule="evenodd"
     d="M479.019 98.3797H484.6C485.104 98.3797 485.516 98.791 485.516 99.2957C485.516 99.7994 485.104 100.212 484.6 100.212H479.019C478.516 100.212 478.102 99.7994 478.102 99.2957C478.102 98.791 478.516 98.3797 479.019 98.3797Z"
     fill="#2D2B70"
     id="path32" />
  <path
     fill-rule="evenodd"
     clip-rule="evenodd"
     d="M481.531 91.8563H484.341C484.846 91.8563 485.257 92.2685 485.257 92.7732C485.257 93.277 484.846 93.6883 484.341 93.6883H481.531C481.027 93.6883 480.615 93.277 480.615 92.7732C480.615 92.2685 481.027 91.8563 481.531 91.8563Z"
     fill="#2D2B70"
     id="path33" />
  <path
     fill-rule="evenodd"
     clip-rule="evenodd"
     d="M483.471 85.377H485.528C486.033 85.377 486.444 85.7893 486.444 86.293C486.444 86.7968 486.033 87.209 485.528 87.209H483.471C482.967 87.209 482.554 86.7968 482.554 86.293C482.554 85.7893 482.967 85.377 483.471 85.377Z"
     fill="#2D2B70"
     id="path34" />
  <path
     fill-rule="evenodd"
     clip-rule="evenodd"
     d="M444.899 176.308H564.492C567.903 176.308 570.692 179.099 570.692 182.51V243.353C570.692 246.764 567.902 249.552 564.492 249.552H444.899C441.488 249.552 438.698 246.764 438.698 243.353V182.51C438.698 179.098 441.488 176.308 444.899 176.308Z"
     fill="white"
     id="path35" />
  <path
     fill-rule="evenodd"
     clip-rule="evenodd"
     d="M444.899 176.308H564.491C567.902 176.308 570.692 179.099 570.692 182.51V191.071C570.692 192.027 569.912 192.807 568.957 192.807H440.433C439.48 192.807 438.698 192.027 438.698 191.071V182.51C438.698 179.099 441.488 176.308 444.899 176.308Z"
     fill="#F395A3"
     id="path36" />
  <path
     fill-rule="evenodd"
     clip-rule="evenodd"
     d="M482.281 205.439H467.307C466.598 205.439 466.019 206.018 466.019 206.727C466.019 207.437 466.598 208.015 467.307 208.015H482.281C482.989 208.015 483.569 207.437 483.569 206.727C483.569 206.018 482.989 205.439 482.281 205.439ZM460.773 205.439H461.962C462.671 205.439 463.25 206.018 463.25 206.727C463.25 207.437 462.671 208.015 461.962 208.015H460.773C460.063 208.015 459.485 207.437 459.485 206.727C459.485 206.018 460.063 205.439 460.773 205.439ZM448.757 205.439H456.259C456.969 205.439 457.547 206.018 457.547 206.727C457.547 207.437 456.969 208.015 456.259 208.015H448.757C448.049 208.015 447.469 207.437 447.469 206.727C447.469 206.018 448.049 205.439 448.757 205.439ZM448.758 212.182H482.282C482.99 212.182 483.57 212.762 483.57 213.47C483.57 214.18 482.99 214.758 482.282 214.758H448.758C448.05 214.758 447.471 214.18 447.471 213.47C447.471 212.762 448.05 212.182 448.758 212.182ZM448.758 217.866H463.732C464.441 217.866 465.02 218.443 465.02 219.153C465.02 219.863 464.441 220.441 463.732 220.441H448.758C448.05 220.441 447.471 219.863 447.471 219.153C447.471 218.443 448.05 217.866 448.758 217.866ZM470.266 217.866H469.077C468.369 217.866 467.79 218.443 467.79 219.153C467.79 219.863 468.369 220.441 469.077 220.441H470.266C470.976 220.441 471.554 219.863 471.554 219.153C471.554 218.443 470.976 217.866 470.266 217.866ZM482.282 217.866H474.78C474.072 217.866 473.492 218.443 473.492 219.153C473.492 219.863 474.072 220.441 474.78 220.441H482.282C482.99 220.441 483.57 219.863 483.57 219.153C483.57 218.443 482.99 217.866 482.282 217.866ZM448.758 224.61H482.282C482.99 224.61 483.57 225.187 483.57 225.897C483.57 226.604 482.99 227.184 482.282 227.184H448.758C448.05 227.184 447.471 226.604 447.471 225.897C447.471 225.187 448.05 224.61 448.758 224.61ZM482.281 230.291H467.307C466.598 230.291 466.019 230.872 466.019 231.581C466.019 232.288 466.598 232.869 467.307 232.869H482.281C482.989 232.869 483.569 232.288 483.569 231.581C483.569 230.872 482.989 230.291 482.281 230.291ZM460.773 230.291H461.962C462.671 230.291 463.25 230.872 463.25 231.581C463.25 232.288 462.671 232.869 461.962 232.869H460.773C460.063 232.869 459.485 232.288 459.485 231.581C459.485 230.872 460.063 230.291 460.773 230.291ZM448.757 230.291H456.259C456.969 230.291 457.547 230.872 457.547 231.581C457.547 232.288 456.969 232.869 456.259 232.869H448.757C448.049 232.869 447.469 232.288 447.469 231.581C447.469 230.872 448.049 230.291 448.757 230.291ZM448.758 237.035H482.282C482.99 237.035 483.57 237.614 483.57 238.323C483.57 239.031 482.99 239.61 482.282 239.61H448.758C448.05 239.61 447.471 239.031 447.471 238.323C447.471 237.614 448.05 237.035 448.758 237.035ZM448.758 199.757H482.282C482.99 199.757 483.57 200.336 483.57 201.043C483.57 201.753 482.99 202.332 482.282 202.332H448.758C448.05 202.332 447.471 201.753 447.471 201.043C447.471 200.336 448.05 199.757 448.758 199.757Z"
     fill="#F5ACAA"
     id="path37" />
  <path
     fill-rule="evenodd"
     clip-rule="evenodd"
     d="M560.436 205.439H534.186C533.477 205.439 532.897 206.018 532.897 206.727C532.897 207.437 533.477 208.015 534.186 208.015H560.436C561.146 208.015 561.725 207.437 561.725 206.727C561.725 206.018 561.146 205.439 560.436 205.439ZM523.456 205.439H527.064C527.772 205.439 528.352 206.018 528.352 206.727C528.352 207.437 527.772 208.015 527.064 208.015H523.456C522.746 208.015 522.168 207.437 522.168 206.727C522.168 206.018 522.746 205.439 523.456 205.439ZM503.721 205.439H517.697C518.406 205.439 518.984 206.018 518.984 206.727C518.984 207.437 518.406 208.015 517.697 208.015H503.721C503.012 208.015 502.433 207.437 502.433 206.727C502.433 206.018 503.012 205.439 503.721 205.439ZM503.722 212.182H560.438C561.147 212.182 561.725 212.762 561.725 213.47C561.725 214.18 561.147 214.758 560.438 214.758H503.722C503.013 214.758 502.434 214.18 502.434 213.47C502.434 212.762 503.013 212.182 503.722 212.182ZM503.723 217.866H529.971C530.681 217.866 531.26 218.443 531.26 219.153C531.26 219.863 530.681 220.441 529.971 220.441H503.723C503.013 220.441 502.434 219.863 502.434 219.153C502.434 218.443 503.013 217.866 503.723 217.866ZM540.704 217.866H537.094C536.386 217.866 535.807 218.443 535.807 219.153C535.807 219.863 536.386 220.441 537.094 220.441H540.704C541.412 220.441 541.991 219.863 541.991 219.153C541.991 218.443 541.412 217.866 540.704 217.866ZM560.437 217.866H546.461C545.751 217.866 545.174 218.443 545.174 219.153C545.174 219.863 545.751 220.441 546.461 220.441H560.437C561.147 220.441 561.725 219.863 561.725 219.153C561.725 218.443 561.147 217.866 560.437 217.866ZM503.722 224.61H560.438C561.147 224.61 561.725 225.187 561.725 225.897C561.725 226.604 561.147 227.184 560.438 227.184H503.722C503.013 227.184 502.434 226.604 502.434 225.897C502.434 225.187 503.013 224.61 503.722 224.61ZM560.436 230.291H534.186C533.477 230.291 532.897 230.872 532.897 231.581C532.897 232.288 533.477 232.869 534.186 232.869H560.436C561.146 232.869 561.725 232.288 561.725 231.581C561.725 230.872 561.146 230.291 560.436 230.291ZM523.456 230.291H527.064C527.772 230.291 528.352 230.872 528.352 231.581C528.352 232.288 527.772 232.869 527.064 232.869H523.456C522.746 232.869 522.168 232.288 522.168 231.581C522.168 230.872 522.746 230.291 523.456 230.291ZM503.721 230.291H517.697C518.406 230.291 518.984 230.872 518.984 231.581C518.984 232.288 518.406 232.869 517.697 232.869H503.721C503.012 232.869 502.433 232.288 502.433 231.581C502.433 230.872 503.012 230.291 503.721 230.291ZM503.722 237.035H560.438C561.147 237.035 561.725 237.614 561.725 238.323C561.725 239.031 561.147 239.61 560.438 239.61H503.722C503.013 239.61 502.434 239.031 502.434 238.323C502.434 237.614 503.013 237.035 503.722 237.035ZM503.722 199.757H560.438C561.147 199.757 561.725 200.336 561.725 201.043C561.725 201.753 561.147 202.332 560.438 202.332H503.722C503.013 202.332 502.434 201.753 502.434 201.043C502.434 200.336 503.013 199.757 503.722 199.757Z"
     fill="#DAD5EA"
     id="path38" />
  <path
     fill-rule="evenodd"
     clip-rule="evenodd"
     d="M538.864 187.552C540.504 187.552 541.842 186.214 541.842 184.574C541.842 182.935 540.504 181.597 538.864 181.597C537.224 181.597 535.887 182.935 535.887 184.574C535.887 186.214 537.224 187.552 538.864 187.552Z"
     fill="white"
     id="path39" />
  <path
     fill-rule="evenodd"
     clip-rule="evenodd"
     d="M549.62 187.552C551.259 187.552 552.598 186.214 552.598 184.574C552.598 182.935 551.259 181.597 549.62 181.597C547.981 181.597 546.642 182.935 546.642 184.574C546.642 186.214 547.981 187.552 549.62 187.552Z"
     fill="white"
     id="path40" />
  <path
     fill-rule="evenodd"
     clip-rule="evenodd"
     d="M560.331 187.552C561.97 187.552 563.307 186.214 563.307 184.574C563.307 182.935 561.97 181.597 560.331 181.597C558.691 181.597 557.353 182.935 557.353 184.574C557.353 186.214 558.691 187.552 560.331 187.552Z"
     fill="white"
     id="path41" />
  <path
     fill-rule="evenodd"
     clip-rule="evenodd"
     d="M469.958 7.09641C470.515 7.09641 470.966 7.74174 470.966 8.53733C470.966 9.33292 470.515 9.97922 469.958 9.97922H466.02C465.463 9.97922 465.012 9.33292 465.012 8.53733C465.012 7.74174 465.463 7.09641 466.02 7.09641H469.958ZM476.366 9.97922C475.809 9.97922 475.356 9.33292 475.356 8.53733C475.356 7.74174 475.809 7.09641 476.366 7.09641H523.636C524.194 7.09641 524.645 7.74174 524.645 8.53733C524.645 9.33292 524.194 9.97922 523.636 9.97922H476.366Z"
     fill="#7C6CAF"
     id="path43" />
  <path
     fill-rule="evenodd"
     clip-rule="evenodd"
     d="M83.3656 227.613H87.7827C88.5909 227.613 89.2535 228.275 89.2535 229.084V233.5C89.2535 234.309 88.5909 234.971 87.7827 234.971H83.3656C82.5565 234.971 81.8948 234.309 81.8948 233.5V229.084C81.8948 228.275 82.5565 227.613 83.3656 227.613Z"
     fill="#DAD5EA"
     id="path44" />
  <path
     fill-rule="evenodd"
     clip-rule="evenodd"
     d="M98.4851 227.613H102.901C103.709 227.613 104.372 228.275 104.372 229.084V233.5C104.372 234.309 103.709 234.971 102.901 234.971H98.4851C97.6741 234.971 97.0134 234.309 97.0134 233.5V229.084C97.0134 228.275 97.6741 227.613 98.4851 227.613Z"
     fill="#DAD5EA"
     id="path45" />
  <path
     fill-rule="evenodd"
     clip-rule="evenodd"
     d="M113.559 227.613H117.976C118.785 227.613 119.446 228.275 119.446 229.084V233.5C119.446 234.309 118.785 234.971 117.976 234.971H113.559C112.749 234.971 112.088 234.309 112.088 233.5V229.084C112.088 228.275 112.749 227.613 113.559 227.613Z"
     fill="#DAD5EA"
     id="path46" />
  <path
     fill-rule="evenodd"
     clip-rule="evenodd"
     d="M128.633 227.613H133.05C133.859 227.613 134.521 228.275 134.521 229.084V233.5C134.521 234.309 133.859 234.971 133.05 234.971H128.633C127.824 234.971 127.162 234.309 127.162 233.5V229.084C127.162 228.275 127.824 227.613 128.633 227.613Z"
     fill="#DAD5EA"
     id="path47" />
  <path
     fill-rule="evenodd"
     clip-rule="evenodd"
     d="M22.0979 164.98H26.516C27.3241 164.98 27.9868 165.641 27.9868 166.45V170.867C27.9868 171.675 27.3241 172.338 26.516 172.338H22.0979C21.2898 172.338 20.6281 171.675 20.6281 170.867V166.45C20.6281 165.641 21.2898 164.98 22.0979 164.98Z"
     fill="#F2BBC9"
     id="path48" />
  <path
     fill-rule="evenodd"
     clip-rule="evenodd"
     d="M37.1731 164.98H41.5903C42.3984 164.98 43.0611 165.641 43.0611 166.45V170.867C43.0611 171.675 42.3984 172.338 41.5903 172.338H37.1731C36.3641 172.338 35.7024 171.675 35.7024 170.867V166.45C35.7024 165.641 36.3641 164.98 37.1731 164.98Z"
     fill="#F2BBC9"
     id="path49" />
  <path
     fill-rule="evenodd"
     clip-rule="evenodd"
     d="M52.2484 164.98H56.6646C57.4737 164.98 58.1354 165.641 58.1354 166.45V170.867C58.1354 171.675 57.4737 172.338 56.6646 172.338H52.2484C51.4384 172.338 50.7767 171.675 50.7767 170.867V166.45C50.7767 165.641 51.4384 164.98 52.2484 164.98Z"
     fill="#F2BBC9"
     id="path50" />
  <path
     fill-rule="evenodd"
     clip-rule="evenodd"
     d="M67.3668 164.98H71.7849C72.5921 164.98 73.2538 165.641 73.2538 166.45V170.867C73.2538 171.675 72.5921 172.338 71.7849 172.338H67.3668C66.5568 172.338 65.8951 171.675 65.8951 170.867V166.45C65.8951 165.641 66.5568 164.98 67.3668 164.98Z"
     fill="#F2BBC9"
     id="path51" />
  <path
     fill-rule="evenodd"
     clip-rule="evenodd"
     d="M87.9668 190.104C87.4091 190.104 86.9574 190.748 86.9574 191.545C86.9574 192.34 87.4091 192.986 87.9668 192.986H91.9033C92.461 192.986 92.9127 192.34 92.9127 191.545C92.9127 190.748 92.461 190.104 91.9033 190.104H87.9668ZM81.5587 192.986C82.1154 192.986 82.5681 192.34 82.5681 191.545C82.5681 190.748 82.1154 190.104 81.5587 190.104H34.2876C33.7299 190.104 33.2781 190.748 33.2781 191.545C33.2781 192.34 33.7299 192.986 34.2876 192.986H81.5587Z"
     fill="#7C6CAF"
     id="path54" />
  <path
     fill-rule="evenodd"
     clip-rule="evenodd"
     d="M337.058 161.719C333.604 160.614 319.517 155.78 320.834 163.303C325.499 167.458 327.045 171.639 330.846 175.779C332.431 177.504 336.142 178.81 337.867 180.762L344.567 190.856C348.509 189.273 352.451 187.691 356.393 186.108C356.351 185.396 356.309 184.683 356.269 183.971C355.081 175.318 353.894 166.668 352.706 158.016C347.49 159.251 342.275 160.484 337.058 161.719Z"
     fill="#EA7485"
     id="path55" />
  <path
     fill-rule="evenodd"
     clip-rule="evenodd"
     d="M261.126 187.403C261.126 187.403 184.471 171.47 170.513 162.627C156.556 153.785 146.902 138.602 117.284 95.7607C117.284 95.7607 116.082 93.7187 112.714 94.9275C109.346 96.1344 100.693 102.257 99.8319 104.253C98.9708 106.249 98.7137 108.109 99.8204 110.215C100.927 112.321 140.949 180.749 149.484 190.258C158.02 199.766 225.19 232.896 238.362 240.601C251.533 248.306 261.126 187.403 261.126 187.403Z"
     fill="#EA495B"
     id="path56" />
  <path
     fill-rule="evenodd"
     clip-rule="evenodd"
     d="M108.981 96.837C105.153 99.1775 100.455 102.779 99.8319 104.223C98.9708 106.218 98.7137 108.078 99.8204 110.185C100.927 112.29 140.949 180.719 149.484 190.227C156.826 198.408 207.565 224.07 229.985 235.987C230.549 224.603 230.414 215.582 228.692 214.551C223.696 211.551 161.235 191.231 156.571 187.067C151.906 182.902 117.928 128.936 110.599 115.944C103.281 102.971 108.965 96.8543 108.981 96.837Z"
     fill="#D9374C"
     id="path57" />
  <path
     fill-rule="evenodd"
     clip-rule="evenodd"
     d="M340.23 266.369L351.757 263.752C351.757 263.752 380.886 291.736 383.76 294.219C386.634 296.702 397.828 289.48 397.828 289.48L382.752 256.799L355.147 206.28L343.028 228.452L340.23 266.369Z"
     fill="#D9374C"
     id="path58" />
  <path
     fill-rule="evenodd"
     clip-rule="evenodd"
     d="M244.504 106.825C249.45 93.1925 264.262 57.4757 286.115 39.547C286.115 39.547 291.173 35.1221 298.983 40.253C306.795 45.3848 316.503 50.7806 323.724 55.7063C330.943 60.6311 330.717 67.3483 331.4 74.7822C332.082 82.216 332.77 95.2469 333.116 104.563C333.462 113.878 331.86 115.115 328.698 117.006C325.611 118.853 281.033 131.894 248.381 117.547C242.11 114.793 242.955 111.096 244.504 106.825Z"
     fill="#2C2A6B"
     id="path59" />
  <path
     fill-rule="evenodd"
     clip-rule="evenodd"
     d="M320.856 53.8179C321.841 54.4546 322.794 55.0855 323.708 55.7087C330.927 60.6334 330.702 67.3507 331.385 74.7845C331.91 80.5145 332.439 89.5694 332.812 97.6852C326.123 97.7372 314.447 97.5041 310.902 95.2532C306.655 92.5563 293.244 80.032 293.244 80.032C293.244 80.032 318.897 71.6012 320.395 61.7739C320.818 59.0057 320.923 56.2904 320.856 53.8179Z"
     fill="#231F58"
     id="path60" />
  <path
     fill-rule="evenodd"
     clip-rule="evenodd"
     d="M254.72 82.972C258.33 75.6615 262.698 67.7932 267.754 60.3854C282.074 63.8663 311.273 72.5234 327.581 88.2744C349.763 109.698 277.161 94.8895 273.504 92.2658C271.102 90.5407 260.875 86.8209 254.72 82.972Z"
     fill="#FAB52E"
     id="path61" />
  <path
     fill-rule="evenodd"
     clip-rule="evenodd"
     d="M306.905 74.2256C314.577 78.0812 321.864 82.7238 327.571 88.2351C332.477 92.974 332.74 95.9377 330.142 97.655C323.373 97.6165 314.011 97.1946 310.902 95.2201C306.655 92.5232 293.244 79.9989 293.244 79.9989C293.244 79.9989 300.082 77.7518 306.905 74.2256Z"
     fill="#F1843E"
     id="path62" />
  <path
     fill-rule="evenodd"
     clip-rule="evenodd"
     d="M283.407 136.969C245.262 126.009 216.236 102.743 218.577 85.0023C220.919 67.2624 253.741 61.7665 291.887 72.7256C330.034 83.6856 359.061 106.951 356.718 124.691C354.377 142.431 321.554 147.928 283.407 136.969Z"
     fill="#2C2A6B"
     id="path63" />
  <path
     fill-rule="evenodd"
     clip-rule="evenodd"
     d="M283.408 136.98C261.022 130.548 241.782 119.878 230.173 108.574C228.695 103.138 228.636 96.1491 234.439 90.0935C245.932 78.1009 300.232 80.2662 326.382 99.5867C352.446 118.845 339.159 140.241 339.069 140.382C325.44 144.138 305.301 143.27 283.408 136.98Z"
     fill="#221D55"
     id="path64" />
  <path
     fill-rule="evenodd"
     clip-rule="evenodd"
     d="M218.627 89.4898C218.407 87.9631 218.383 86.4644 218.576 85.0023C220.917 67.2624 253.739 61.7665 291.885 72.7256C330.032 83.6856 359.059 106.951 356.716 124.691C356.461 126.623 355.845 128.41 354.898 130.047C359.591 118.881 347.197 104.905 330.877 93.9127C314.554 82.9199 279.007 69.5971 248.762 72.2594C219.23 74.859 218.639 88.831 218.627 89.4898Z"
     fill="#494194"
     id="path65" />
  <path
     fill-rule="evenodd"
     clip-rule="evenodd"
     d="M293.231 204.031L289.92 204.511H285.818L282.506 204.031L262.991 185.564L220.605 206.263L225.041 281.458C226.567 304.96 221.193 356.71 223.788 366.721C224.026 367.638 224.84 368.988 225.809 370.369H349.928C350.897 368.988 351.712 367.638 351.95 366.721C354.545 356.71 349.17 304.96 350.697 281.458L355.132 206.263L312.747 185.564L293.231 204.031Z"
     fill="#EA495B"
     id="path66" />
  <path
     fill-rule="evenodd"
     clip-rule="evenodd"
     d="M315.311 370.349H349.933C350.902 368.968 351.717 367.619 351.955 366.701C354.55 356.691 349.175 304.941 350.702 281.438L355.137 206.243L315.592 186.93L314.533 189.852L315.764 192.44C315.764 192.44 317.366 190.56 318.322 191.31C319.281 192.058 337.602 208.549 336.937 215.879C336.27 223.208 332.94 270.177 331.94 313.484C331.393 337.123 322.907 357.09 315.311 370.349ZM220.914 211.385L225.046 281.438C225.173 283.394 225.251 285.55 225.291 287.857L225.292 287.859C225.292 287.859 233.667 217.545 228.67 214.547C227.761 214.001 224.939 212.878 220.914 211.385Z"
     fill="#D9374C"
     id="path67" />
  <path
     fill-rule="evenodd"
     clip-rule="evenodd"
     d="M310.714 180.809C295.335 174.161 280.458 174.161 265.079 180.809L267.744 187.912H308.049L310.714 180.809Z"
     fill="#F2BBC9"
     id="path68" />
  <path
     fill-rule="evenodd"
     clip-rule="evenodd"
     d="M293.257 204.034L289.947 204.512H285.845L282.533 204.034L269.427 191.629L267.468 192.236L263.271 197.759C263.271 197.759 272.83 219.919 273.392 220.668C273.953 221.415 274.95 221.789 276.384 220.043C277.818 218.299 282.339 212.592 282.339 212.592C282.339 212.592 283.645 211.213 284.259 212.767C284.872 214.323 291.63 210.051 291.63 210.051L292.11 211.549C292.11 211.549 293.142 210.3 294.156 211.922C295.168 213.542 300.173 220.511 300.516 220.823C300.859 221.134 302.385 222.162 303.446 219.98C304.414 217.988 315.788 192.457 317.771 188.006L312.774 185.564L293.257 204.034Z"
     fill="#D9374C"
     id="path69" />
  <path
     fill-rule="evenodd"
     clip-rule="evenodd"
     d="M293.26 204.034L289.95 204.512H285.848L282.536 204.034L281.233 202.798L278.478 207.56C278.478 207.56 284.63 209.556 284.63 214.96V256.77C284.63 258.568 286.101 260.04 287.899 260.04C289.697 260.04 291.167 258.568 291.167 256.77V214.96C291.167 209.556 297.319 207.56 297.319 207.56L294.565 202.798L293.26 204.034Z"
     fill="#D9374C"
     id="path70" />
  <path
     fill-rule="evenodd"
     clip-rule="evenodd"
     d="M287.893 148.451H287.894C297.411 148.451 305.199 156.239 305.199 165.757V188.647C305.199 198.163 297.411 205.951 287.894 205.951H287.893C278.376 205.951 270.589 198.163 270.589 188.647V165.757C270.589 156.239 278.376 148.451 287.893 148.451Z"
     fill="#EA7485"
     id="path71" />
  <path
     fill-rule="evenodd"
     clip-rule="evenodd"
     d="M283.834 202.426L285.816 202.093C285.816 202.093 286.207 202.512 286.265 203.226C286.322 203.942 286.365 206.043 286.365 206.043C285.639 206.303 281.752 207.097 281.875 206.544C281.904 206.416 283.834 202.426 283.834 202.426Z"
     fill="#D9374C"
     id="path72" />
  <path
     fill-rule="evenodd"
     clip-rule="evenodd"
     d="M291.896 202.426L289.914 202.093C289.914 202.093 289.523 202.512 289.466 203.226C289.408 203.942 289.365 206.043 289.365 206.043C290.091 206.615 293.979 207.097 293.856 206.544C293.827 206.416 291.896 202.426 291.896 202.426Z"
     fill="#D9374C"
     id="path73" />
  <path
     fill-rule="evenodd"
     clip-rule="evenodd"
     d="M310.705 180.828C310.926 181.02 313.38 185.327 314.657 187.395C314.657 187.395 315.814 189.097 314.963 191.955C314.111 194.814 302.982 218.286 302.982 218.286C302.982 218.286 302.192 219.532 300.915 218.316C299.638 217.1 289.938 202.11 289.938 202.11L308.334 182.712C309.196 181.618 310.484 180.634 310.705 180.828Z"
     fill="white"
     id="path74" />
  <path
     fill-rule="evenodd"
     clip-rule="evenodd"
     d="M265.064 180.811C264.91 180.886 262.39 185.31 261.112 187.378C261.112 187.378 259.957 189.08 260.807 191.938C261.659 194.796 272.787 218.269 272.787 218.269C272.787 218.269 273.578 219.514 274.855 218.299C276.131 217.082 285.832 202.092 285.832 202.092L267.436 182.695C266.211 181.247 265.219 180.735 265.064 180.811Z"
     fill="white"
     id="path75" />
  <path
     fill-rule="evenodd"
     clip-rule="evenodd"
     d="M250.274 128.84C250.009 128.876 249.749 128.919 249.491 128.973L249.483 128.975L249.484 128.974C244.725 129.971 241.111 134.146 241.014 139.214C240.903 145.106 245.589 149.973 251.479 150.086C257.371 150.195 262.239 145.51 262.35 139.621C262.415 136.196 260.86 133.119 258.39 131.121C258.662 134.269 258.16 138.168 254.14 138.558L254.257 132.406C254.304 129.917 251.981 128.771 250.274 128.84Z"
     fill="#EA7485"
     id="path76" />
  <path
     fill-rule="evenodd"
     clip-rule="evenodd"
     d="M327.317 128.84C327.581 128.876 327.841 128.919 328.1 128.973L328.107 128.975L328.106 128.974C332.865 129.971 336.48 134.146 336.578 139.214C336.687 145.106 332.002 149.973 326.112 150.086C320.22 150.195 315.352 145.51 315.24 139.621C315.176 136.196 316.73 133.119 319.201 131.121C318.929 134.269 319.43 138.168 323.45 138.558L323.334 132.406C323.287 129.917 325.609 128.771 327.317 128.84Z"
     fill="#EA7485"
     id="path77" />
  <path
     fill-rule="evenodd"
     clip-rule="evenodd"
     d="M254.948 100.958C253.479 104.906 252.252 107.599 252.252 112.042V145.267C252.252 165.359 268.692 181.798 288.785 181.798C308.872 181.798 325.313 165.359 325.313 145.267V112.042C325.313 107.598 324.928 104.905 323.458 100.957C317.374 99.2521 304.328 98.0712 289.206 98.0712C274.085 98.0712 261.03 99.2521 254.948 100.958Z"
     fill="#F5C7D5"
     id="path78" />
  <path
     fill-rule="evenodd"
     clip-rule="evenodd"
     d="M276.873 179.792C280.608 181.09 284.614 181.798 288.778 181.798C308.865 181.798 325.306 165.359 325.306 145.267V112.042C325.306 107.598 324.92 104.905 323.45 100.957C317.367 99.2521 304.321 98.0712 289.199 98.0712C276.701 98.0712 265.616 98.8774 258.712 100.121L258.597 100.142L258.515 100.156L254.897 107.446L258.784 113.429C258.784 113.429 262.226 107.445 272.302 107.445H301.951C307.863 107.445 312.289 110.062 312.289 121.412V153.667C312.289 162.494 306.57 185.085 276.873 179.792Z"
     fill="#F3ADBB"
     id="path79" />
  <path
     fill-rule="evenodd"
     clip-rule="evenodd"
     d="M293.227 147.154C293.432 152.371 289.369 156.766 284.153 156.97C278.935 157.176 274.54 153.115 274.335 147.897H274.351C274.315 146.999 275.021 146.237 275.918 146.202L291.516 145.587C292.412 145.552 293.177 146.257 293.21 147.153L293.227 147.154Z"
     fill="#180C39"
     id="path80" />
  <path
     fill-rule="evenodd"
     clip-rule="evenodd"
     d="M290.033 154.644C288.464 156.015 286.433 156.879 284.188 156.969C282.355 157.042 280.623 156.586 279.139 155.74C279.789 153.773 281.851 152.238 284.404 152.042C286.838 151.855 289.019 152.941 290.033 154.644Z"
     fill="#EA495B"
     id="path81" />
  <path
     fill-rule="evenodd"
     clip-rule="evenodd"
     d="M275.745 146.207L290.405 145.63C290.701 147.242 290.015 148.909 288.939 149.309C287.629 149.794 277.01 149.936 276.226 149.13C275.847 148.742 275.747 147.443 275.745 146.207Z"
     fill="white"
     id="path82" />
  <path
     fill-rule="evenodd"
     clip-rule="evenodd"
     d="M304.134 139.019C301.481 138.97 299.29 141.081 299.239 143.731C299.188 146.384 301.299 148.576 303.951 148.626C306.603 148.676 308.796 146.567 308.846 143.914C308.896 141.262 306.785 139.07 304.134 139.019Z"
     fill="#EA7485"
     id="path83" />
  <path
     fill-rule="evenodd"
     clip-rule="evenodd"
     d="M264.244 138.226C261.592 138.175 259.401 140.286 259.35 142.937C259.298 145.591 261.409 147.782 264.061 147.832C266.713 147.883 268.905 145.774 268.956 143.12C269.005 140.467 266.896 138.275 264.244 138.226Z"
     fill="#EA7485"
     id="path84" />
  <path
     fill-rule="evenodd"
     clip-rule="evenodd"
     d="M262.238 124.402C261.6 124.72 260.819 124.461 260.5 123.823C260.18 123.183 260.439 122.402 261.076 122.084C264.514 120.312 269.11 120.106 272.484 122.129C273.093 122.496 273.295 123.297 272.929 123.907C272.563 124.52 271.761 124.721 271.15 124.355C268.42 122.718 265.002 123.081 262.238 124.402Z"
     fill="#180C39"
     id="path85" />
  <path
     fill-rule="evenodd"
     clip-rule="evenodd"
     d="M305.224 111.93C302.455 110.606 299.037 110.244 296.307 111.882C295.696 112.248 294.893 112.046 294.528 111.434C294.163 110.823 294.364 110.023 294.975 109.656C298.347 107.632 302.943 107.838 306.379 109.61C307.018 109.929 307.278 110.709 306.959 111.349C306.638 111.987 305.858 112.247 305.224 111.93Z"
     fill="#180C39"
     id="path86" />
  <path
     fill-rule="evenodd"
     clip-rule="evenodd"
     d="M270.122 133.143C270.122 132.245 269.768 131.388 269.133 130.753C268.496 130.117 267.641 129.762 266.741 129.762C265.842 129.762 264.987 130.117 264.351 130.753C263.715 131.388 263.36 132.244 263.36 133.143C263.36 133.861 262.777 134.445 262.059 134.445C261.342 134.445 260.759 133.861 260.759 133.143C260.759 131.554 261.388 130.038 262.512 128.913C263.636 127.789 265.151 127.162 266.741 127.162C268.332 127.162 269.847 127.788 270.972 128.913C272.096 130.038 272.723 131.554 272.723 133.143C272.723 133.861 272.14 134.445 271.423 134.445C270.705 134.445 270.122 133.861 270.122 133.143Z"
     fill="#180C39"
     id="path87" />
  <path
     fill-rule="evenodd"
     clip-rule="evenodd"
     d="M252.263 139.159C252.263 139.159 257.724 136.935 257.724 127.591C257.724 118.246 257.724 123.58 257.724 118.705C257.724 113.829 261.109 105.297 270.995 105.297H306.595C316.482 105.297 319.868 113.829 319.868 118.705C319.868 123.58 319.868 113.369 319.868 122.712C319.868 132.057 325.329 133.668 325.329 133.668C325.329 128.682 327.587 128.836 327.587 128.836V110.255C327.587 107.495 327.338 104.434 326.634 101.286H326.633C325.497 98.634 308.992 96.5285 288.796 96.5285C268.599 96.5285 252.094 98.634 250.957 101.286H250.956C250.253 104.434 250.004 107.495 250.004 110.255V128.836C250.004 128.836 252.263 131.748 252.263 139.159Z"
     fill="#180C39"
     id="path88" />
  <path
     fill-rule="evenodd"
     clip-rule="evenodd"
     d="M300.355 124.385C302.303 124.385 303.895 125.979 303.895 127.926V131.429C303.895 133.376 302.303 134.97 300.355 134.97C298.408 134.97 296.814 133.376 296.814 131.429V127.926C296.814 125.979 298.408 124.385 300.355 124.385Z"
     fill="#180C39"
     id="path89" />
  <path
     fill-rule="evenodd"
     clip-rule="evenodd"
     d="M304.085 115.652C299.708 115.652 295.329 117.323 291.989 120.663C288.649 124.002 286.979 128.381 286.979 132.758C286.979 137.136 288.649 141.515 291.989 144.854C295.329 148.195 299.708 149.865 304.085 149.865C308.463 149.865 312.84 148.195 316.182 144.854C319.521 141.515 321.192 137.136 321.192 132.758C321.192 128.381 319.521 124.002 316.182 120.663C312.84 117.323 308.463 115.652 304.085 115.652ZM289.967 118.64C293.865 114.742 298.975 112.793 304.085 112.793C309.195 112.793 314.304 114.742 318.203 118.64C322.102 122.538 324.051 127.649 324.051 132.758C324.051 137.867 322.101 142.979 318.203 146.876C314.304 150.775 309.195 152.725 304.085 152.725C298.975 152.725 293.865 150.775 289.967 146.876C286.069 142.979 284.12 137.867 284.12 132.758C284.12 127.649 286.069 122.538 289.967 118.64Z"
     fill="#180C39"
     id="path90" />
  <path
     fill-rule="evenodd"
     clip-rule="evenodd"
     d="M316.185 146.88C315.628 146.322 315.628 145.417 316.185 144.858C316.744 144.301 317.649 144.301 318.207 144.858L322.932 149.585C323.491 150.142 323.491 151.048 322.932 151.605C322.374 152.164 321.469 152.164 320.91 151.605L316.185 146.88Z"
     fill="#180C39"
     id="path91" />
  <path
     fill-rule="evenodd"
     clip-rule="evenodd"
     d="M321.1 153.817C319.984 152.699 319.984 150.889 321.1 149.773C322.217 148.657 324.028 148.657 325.146 149.773L346.944 171.573C348.061 172.689 348.061 174.5 346.944 175.617C345.828 176.733 344.017 176.733 342.902 175.617L321.1 153.817Z"
     fill="#180C39"
     id="path92" />
  <path
     fill-rule="evenodd"
     clip-rule="evenodd"
     d="M356.293 183.943C354.46 184.282 342.748 190.002 342.748 190.002C342.748 190.002 342.067 190.409 342.476 191.698C342.882 192.989 373.735 274.892 379.708 288.467C388.218 307.811 416.24 293.534 407.672 267.29C403.327 253.987 359.684 186.046 359.074 185.095C358.464 184.146 357.514 183.501 356.293 183.943Z"
     fill="#EA495B"
     id="path93" />
  <path
     fill-rule="evenodd"
     clip-rule="evenodd"
     d="M278.912 136.066C278.018 137.298 276.455 139.541 276.327 140.374C276.147 141.549 278.765 142.226 280.571 141.729C281.854 141.375 281.655 138.506 281.279 136.703C280.865 134.716 280.323 134.123 278.912 136.066Z"
     fill="#F8DDE6"
     id="path94" />
  <path
     fill-rule="evenodd"
     clip-rule="evenodd"
     d="M191.166 7.18457H7.62168C3.42893 7.18457 0 10.6145 0 14.8062V131.883C0 136.075 3.42893 139.505 7.62168 139.505H191.166C195.358 139.505 198.788 136.075 198.788 131.883V14.8062C198.788 10.6145 195.358 7.18457 191.166 7.18457Z"
     fill="#F3E8EA"
     id="path95" />
  <path
     fill-rule="evenodd"
     clip-rule="evenodd"
     d="M162.6 139.514H191.184C195.376 139.514 198.806 136.084 198.806 131.893V17.9393H162.6V139.514Z"
     fill="#FBE2E9"
     id="path96" />
  <path
     fill-rule="evenodd"
     clip-rule="evenodd"
     d="M115.492 44.9585H149.138C150.696 44.9585 151.969 46.2337 151.969 47.7912V62.1147C151.969 63.6722 150.696 64.9465 149.138 64.9465H115.492C113.935 64.9465 112.661 63.6722 112.661 62.1147V47.7912C112.661 46.2337 113.935 44.9585 115.492 44.9585Z"
     fill="white"
     id="path97" />
  <path
     fill-rule="evenodd"
     clip-rule="evenodd"
     d="M191.166 7.18457H7.62168C3.42893 7.18457 0 10.6145 0 14.8062V23.3439H198.788V14.8062C198.788 10.6145 195.358 7.18457 191.166 7.18457Z"
     fill="#F7C7D5"
     id="path98" />
  <path
     fill-rule="evenodd"
     clip-rule="evenodd"
     d="M190.251 17.705C191.594 17.705 192.689 16.6089 192.689 15.2652C192.689 13.9225 191.594 12.8264 190.251 12.8264C188.906 12.8264 187.812 13.9225 187.812 15.2652C187.812 16.6089 188.906 17.705 190.251 17.705Z"
     fill="white"
     id="path99" />
  <path
     fill-rule="evenodd"
     clip-rule="evenodd"
     d="M181.348 17.705C182.692 17.705 183.788 16.6089 183.788 15.2652C183.788 13.9225 182.692 12.8264 181.348 12.8264C180.004 12.8264 178.908 13.9225 178.908 15.2652C178.908 16.6089 180.004 17.705 181.348 17.705Z"
     fill="white"
     id="path100" />
  <path
     fill-rule="evenodd"
     clip-rule="evenodd"
     d="M172.4 17.705C173.744 17.705 174.839 16.6089 174.839 15.2652C174.839 13.9225 173.744 12.8264 172.4 12.8264C171.057 12.8264 169.961 13.9225 169.961 15.2652C169.961 16.6089 171.057 17.705 172.4 17.705Z"
     fill="white"
     id="path101" />
  <path
     fill-rule="evenodd"
     clip-rule="evenodd"
     d="M191.28 54.6554H170.09C169.461 54.6554 168.947 55.1697 168.947 55.7977V55.7987C168.947 56.4267 169.461 56.942 170.09 56.942H191.28C191.909 56.942 192.424 56.4267 192.424 55.7987V55.7977C192.424 55.1697 191.909 54.6554 191.28 54.6554Z"
     fill="white"
     id="path102" />
  <path
     fill-rule="evenodd"
     clip-rule="evenodd"
     d="M191.262 59.6801H179.258C178.628 59.6801 178.115 60.1945 178.115 60.8234V60.8244C178.115 61.4524 178.628 61.9667 179.258 61.9667H191.262C191.891 61.9667 192.406 61.4524 192.406 60.8244V60.8234C192.406 60.1945 191.891 59.6801 191.262 59.6801Z"
     fill="white"
     id="path103" />
  <path
     fill-rule="evenodd"
     clip-rule="evenodd"
     d="M191.28 69.8178H170.09C169.461 69.8178 168.947 70.3321 168.947 70.9611V70.9621C168.947 71.5891 169.461 72.1044 170.09 72.1044H191.28C191.909 72.1044 192.424 71.5891 192.424 70.9621V70.9611C192.424 70.3321 191.909 69.8178 191.28 69.8178Z"
     fill="white"
     id="path104" />
  <path
     fill-rule="evenodd"
     clip-rule="evenodd"
     d="M191.262 74.8426H179.258C178.628 74.8426 178.115 75.3569 178.115 75.9849V75.9859C178.115 76.6148 178.628 77.1292 179.258 77.1292H191.262C191.891 77.1292 192.406 76.6148 192.406 75.9859V75.9849C192.406 75.3569 191.891 74.8426 191.262 74.8426Z"
     fill="white"
     id="path105" />
  <path
     fill-rule="evenodd"
     clip-rule="evenodd"
     d="M175.192 74.8426H173.44C172.811 74.8426 172.297 75.3569 172.297 75.9849V75.9859C172.297 76.6148 172.811 77.1292 173.44 77.1292H175.192C175.822 77.1292 176.335 76.6148 176.335 75.9859V75.9849C176.335 75.3569 175.822 74.8426 175.192 74.8426Z"
     fill="white"
     id="path106" />
  <path
     fill-rule="evenodd"
     clip-rule="evenodd"
     d="M191.277 88.7224H180.491C179.863 88.7224 179.349 88.2071 179.349 87.5782C179.349 86.9492 179.863 86.4348 180.491 86.4348H191.277C191.906 86.4348 192.42 86.9492 192.42 87.5782C192.42 88.2071 191.906 88.7224 191.277 88.7224Z"
     fill="white"
     id="path107" />
  <path
     fill-rule="evenodd"
     clip-rule="evenodd"
     d="M191.294 83.6966H176.392C175.764 83.6966 175.25 83.1823 175.25 82.5533V82.5524C175.25 81.9244 175.764 81.41 176.392 81.41H191.294C191.923 81.41 192.437 81.9244 192.437 82.5524V82.5533C192.437 83.1823 191.923 83.6966 191.294 83.6966Z"
     fill="white"
     id="path108" />
  <path
     fill-rule="evenodd"
     clip-rule="evenodd"
     d="M171.957 83.6966H169.385C168.756 83.6966 168.242 83.1823 168.242 82.5533V82.5524C168.242 81.9244 168.756 81.41 169.385 81.41H171.957C172.585 81.41 173.1 81.9244 173.1 82.5524V82.5533C173.1 83.1823 172.585 83.6966 171.957 83.6966Z"
     fill="white"
     id="path109" />
  <path
     fill-rule="evenodd"
     clip-rule="evenodd"
     d="M191.276 94.0107H184.151C183.522 94.0107 183.007 93.4954 183.007 92.8674V92.8665C183.007 92.2385 183.522 91.7241 184.151 91.7241H191.276C191.905 91.7241 192.42 92.2385 192.42 92.8665V92.8674C192.42 93.4954 191.905 94.0107 191.276 94.0107Z"
     fill="white"
     id="path110" />
  <path
     fill-rule="evenodd"
     clip-rule="evenodd"
     d="M191.283 99.0344H175.468C174.839 99.0344 174.324 98.5201 174.324 97.8921V97.8911C174.324 97.2631 174.839 96.7488 175.468 96.7488H191.283C191.912 96.7488 192.426 97.2631 192.426 97.8911V97.8921C192.426 98.5201 191.912 99.0344 191.283 99.0344Z"
     fill="white"
     id="path111" />
  <path
     fill-rule="evenodd"
     clip-rule="evenodd"
     d="M149.703 28.65H56.2798C55.0209 28.65 53.9942 29.6787 53.9942 30.9366V30.9376C53.9942 32.1945 55.0209 33.2232 56.2798 33.2232H149.703C150.962 33.2232 151.989 32.1945 151.989 30.9376V30.9366C151.989 29.6787 150.962 28.65 149.703 28.65Z"
     fill="white"
     id="path112" />
  <path
     fill-rule="evenodd"
     clip-rule="evenodd"
     d="M45.9221 28.65H14.4076C13.1497 28.65 12.121 29.6787 12.121 30.9366V30.9376C12.121 32.1945 13.1497 33.2232 14.4076 33.2232H45.9221C47.178 33.2232 48.2067 32.1945 48.2067 30.9376V30.9366C48.2067 29.6787 47.178 28.65 45.9221 28.65Z"
     fill="white"
     id="path113" />
  <path
     fill-rule="evenodd"
     clip-rule="evenodd"
     d="M190.946 48.2439H173.357C172.556 48.2439 171.9 47.589 171.9 46.7876V33.434C171.9 32.6326 172.556 31.9767 173.357 31.9767H174.072V31.2986C174.072 31.0781 174.252 30.8979 174.473 30.8979H179.787C180.007 30.8979 180.188 31.0781 180.188 31.2986V31.9767H190.946C191.747 31.9767 192.403 32.6326 192.403 33.434V46.7876C192.403 47.589 191.747 48.2439 190.946 48.2439Z"
     fill="#FAB52E"
     id="path114" />
  <path
     fill-rule="evenodd"
     clip-rule="evenodd"
     d="M178.685 48.2299H189.8C190.453 48.2299 190.987 47.6963 190.987 47.0443V35.6989C190.987 35.0459 190.453 34.5123 189.8 34.5123H178.685C178.032 34.5123 177.498 35.0459 177.498 35.6989V47.0443C177.498 47.6963 178.032 48.2299 178.685 48.2299Z"
     fill="white"
     id="path115" />
  <path
     fill-rule="evenodd"
     clip-rule="evenodd"
     d="M189.2 48.2313H172.959C172.158 48.2313 171.211 47.5764 170.853 46.775L165.734 35.2832C165.378 34.4819 165.741 33.826 166.542 33.826H167.396L167.074 33.1045C166.945 32.8117 167.077 32.5728 167.369 32.5728H173.297C173.59 32.5728 173.935 32.8117 174.066 33.1045L174.387 33.826H182.782C183.585 33.826 184.531 34.4819 184.889 35.2832L190.007 46.775C190.365 47.5764 190.002 48.2313 189.2 48.2313Z"
     fill="#FDC848"
     id="path116" />
  <path
     fill-rule="evenodd"
     clip-rule="evenodd"
     d="M83.1937 42.25C83.6426 42.511 83.7967 43.087 83.5357 43.5378C83.2756 43.9876 82.6987 44.1417 82.2479 43.8807C80.8166 43.0514 79.6223 41.8542 78.793 40.4161C77.9906 39.0262 77.5312 37.4177 77.5312 35.7081C77.5312 33.1017 78.5888 30.7419 80.2965 29.0351C82.0052 27.3264 84.365 26.2698 86.9704 26.2698C89.5777 26.2698 91.9366 27.3264 93.6453 29.0351C95.3539 30.7419 96.4096 33.1017 96.4096 35.7081C96.4096 36.2301 95.9868 36.653 95.4657 36.653C94.9436 36.653 94.5208 36.2301 94.5208 35.7081C94.5208 33.6237 93.6761 31.7359 92.3103 30.3691C90.9445 29.0033 89.0557 28.1577 86.9704 28.1577C84.8861 28.1577 82.9982 29.0033 81.6315 30.3691C80.2657 31.7359 79.421 33.6237 79.421 35.7081C79.421 37.0864 79.785 38.3742 80.4227 39.4789C81.0844 40.6261 82.0418 41.5835 83.1937 42.25Z"
     fill="#F5C7D5"
     id="path117" />
  <path
     fill-rule="evenodd"
     clip-rule="evenodd"
     d="M83.2473 50.2975C83.753 50.4256 84.0583 50.94 83.9302 51.4447C83.8031 51.9504 83.2887 52.2557 82.7831 52.1276C79.0796 51.1846 75.8645 49.0233 73.5904 46.0942C71.3636 43.2268 70.0382 39.6255 70.0382 35.7159C70.0382 33.1625 70.6036 30.7401 71.6178 28.5681C72.6687 26.3133 74.204 24.3272 76.0909 22.7428C76.4896 22.4085 77.0839 22.4625 77.4181 22.8612C77.7524 23.261 77.6994 23.8543 77.3006 24.1895C75.6276 25.5938 74.2647 27.3583 73.3294 29.3647C72.4288 31.293 71.927 33.4457 71.927 35.7159C71.927 39.1911 73.104 42.3898 75.0805 44.9365C77.1022 47.539 79.959 49.4615 83.2473 50.2975ZM98.0765 25.5572C97.7259 25.1748 97.7529 24.5796 98.1353 24.229C98.5186 23.8793 99.1129 23.9063 99.4635 24.2887C100.869 25.824 101.995 27.6174 102.76 29.5891C103.501 31.4943 103.907 33.5603 103.907 35.7159C103.907 37.1597 103.726 38.5621 103.385 39.9029C103.035 41.2773 102.513 42.5901 101.843 43.8192C101.594 44.2748 101.022 44.4433 100.565 44.1948C100.109 43.9473 99.9403 43.3751 100.19 42.9186C100.779 41.8398 101.242 40.6724 101.556 39.4386C101.858 38.2491 102.019 37.0027 102.019 35.7159C102.019 33.7895 101.66 31.9527 101.005 30.2681C100.324 28.5142 99.3229 26.9191 98.0765 25.5572Z"
     fill="#F5C7D5"
     id="path118" />
  <path
     fill-rule="evenodd"
     clip-rule="evenodd"
     d="M14.9528 44.9585H48.5987C50.1572 44.9585 51.4305 46.2337 51.4305 47.7912V62.1147C51.4305 63.6722 50.1572 64.9465 48.5987 64.9465H14.9528C13.3953 64.9465 12.121 63.6722 12.121 62.1147V47.7912C12.121 46.2337 13.3953 44.9585 14.9528 44.9585Z"
     fill="white"
     id="path119" />
  <path
     fill-rule="evenodd"
     clip-rule="evenodd"
     d="M16.6085 73.6085H69.9285C72.3961 73.6085 74.4159 75.6283 74.4159 78.096V100.796C74.4159 103.264 72.3961 105.284 69.9285 105.284H16.6085C14.1408 105.284 12.121 103.264 12.121 100.796V78.096C12.121 75.6283 14.1408 73.6085 16.6085 73.6085Z"
     fill="white"
     id="path120" />
  <path
     fill-rule="evenodd"
     clip-rule="evenodd"
     d="M127.085 73.6085H149.177C150.735 73.6085 152.008 74.8828 152.008 76.4402V90.7647C152.008 92.3222 150.735 93.5955 149.177 93.5955H127.085C125.526 93.5955 124.253 92.3222 124.253 90.7647V76.4402C124.253 74.8828 125.526 73.6085 127.085 73.6085Z"
     fill="white"
     id="path121" />
  <path
     fill-rule="evenodd"
     clip-rule="evenodd"
     d="M14.9287 132.04H93.5949C95.1388 132.04 96.4025 130.777 96.4025 129.233V115.028C96.4025 113.484 95.1388 112.22 93.5949 112.22H14.9287C13.3847 112.22 12.121 113.484 12.121 115.028V129.233C12.121 130.777 13.3847 132.04 14.9287 132.04Z"
     fill="white"
     id="path122" />
  <path
     fill-rule="evenodd"
     clip-rule="evenodd"
     d="M140.059 101.906H150.005C151.086 101.906 151.971 102.79 151.971 103.871V119.926C151.971 121.008 151.086 121.893 150.005 121.893H140.059C138.977 121.893 138.093 121.008 138.093 119.926V103.871C138.093 102.79 138.977 101.906 140.059 101.906Z"
     fill="white"
     id="path123" />
  <path
     fill-rule="evenodd"
     clip-rule="evenodd"
     d="M294.993 224.058C296.369 224.058 297.491 222.937 297.491 221.559C297.491 220.184 296.369 219.062 294.993 219.062C293.617 219.062 292.494 220.184 292.494 221.559C292.494 222.937 293.617 224.058 294.993 224.058Z"
     fill="white"
     id="path124" />
  <path
     fill-rule="evenodd"
     clip-rule="evenodd"
     d="M294.995 222.695C295.619 222.695 296.128 222.187 296.128 221.56C296.128 220.938 295.619 220.429 294.995 220.429C294.371 220.429 293.861 220.938 293.861 221.56C293.861 222.187 294.371 222.695 294.995 222.695Z"
     fill="#DC4887"
     id="path125" />
  <path
     fill-rule="evenodd"
     clip-rule="evenodd"
     d="M294.993 237.899C296.369 237.899 297.491 236.778 297.491 235.4C297.491 234.025 296.369 232.902 294.993 232.902C293.617 232.902 292.494 234.025 292.494 235.4C292.494 236.778 293.617 237.899 294.993 237.899Z"
     fill="white"
     id="path126" />
  <path
     fill-rule="evenodd"
     clip-rule="evenodd"
     d="M294.995 236.535C295.619 236.535 296.128 236.027 296.128 235.401C296.128 234.778 295.619 234.269 294.995 234.269C294.371 234.269 293.861 234.778 293.861 235.401C293.861 236.027 294.371 236.535 294.995 236.535Z"
     fill="#DC4887"
     id="path127" />
  <path
     fill-rule="evenodd"
     clip-rule="evenodd"
     d="M294.993 251.695C296.369 251.695 297.491 250.572 297.491 249.195C297.491 247.821 296.369 246.699 294.993 246.699C293.617 246.699 292.494 247.821 292.494 249.195C292.494 250.572 293.617 251.695 294.993 251.695Z"
     fill="white"
     id="path128" />
  <path
     fill-rule="evenodd"
     clip-rule="evenodd"
     d="M294.995 250.33C295.619 250.33 296.128 249.823 296.128 249.197C296.128 248.574 295.619 248.065 294.995 248.065C294.371 248.065 293.861 248.574 293.861 249.197C293.861 249.823 294.371 250.33 294.995 250.33Z"
     fill="#DC4887"
     id="path129" />
  <path
     fill-rule="evenodd"
     clip-rule="evenodd"
     d="M292.73 124.58C292.426 125.002 291.839 125.098 291.417 124.795C290.996 124.491 290.899 123.904 291.203 123.481C291.455 123.13 291.719 122.795 291.992 122.473L292.037 122.425C292.322 122.093 292.596 121.795 292.859 121.532C293.227 121.163 293.825 121.163 294.193 121.532C294.563 121.9 294.563 122.499 294.193 122.867C293.916 123.146 293.673 123.406 293.465 123.647L293.424 123.698C293.174 123.992 292.942 124.286 292.73 124.58ZM294.193 142.601C294.563 142.969 294.563 143.567 294.193 143.936C293.825 144.304 293.227 144.304 292.859 143.936C291.346 142.423 290.2 140.673 289.425 138.8C288.622 136.858 288.219 134.793 288.219 132.733C288.219 131.774 288.31 130.802 288.488 129.835C288.663 128.889 288.927 127.952 289.279 127.039C289.464 126.553 290.008 126.31 290.493 126.496C290.978 126.682 291.219 127.225 291.034 127.709C290.727 128.509 290.495 129.334 290.339 130.175C290.185 131.009 290.107 131.866 290.107 132.733C290.107 134.558 290.46 136.38 291.166 138.084C291.844 139.722 292.854 141.26 294.193 142.601ZM315.807 140.275C316.088 139.837 316.671 139.709 317.109 139.991C317.547 140.272 317.674 140.854 317.393 141.293C317.09 141.762 316.76 142.221 316.401 142.667C316.038 143.116 315.658 143.54 315.262 143.936C314.893 144.304 314.296 144.304 313.926 143.936C313.558 143.567 313.558 142.969 313.926 142.601C314.296 142.232 314.631 141.86 314.932 141.487C315.247 141.097 315.539 140.692 315.807 140.275ZM313.926 122.867C313.558 122.499 313.558 121.9 313.926 121.532C314.296 121.163 314.893 121.163 315.262 121.532C316.775 123.046 317.921 124.796 318.695 126.668C319.497 128.604 319.898 130.668 319.898 132.733H319.902C319.902 134.21 319.696 135.688 319.285 137.121C319.141 137.622 318.62 137.913 318.119 137.771C317.618 137.627 317.327 137.105 317.47 136.605C317.833 135.343 318.013 134.039 318.013 132.733H318.017C318.017 130.916 317.664 129.093 316.955 127.384C316.278 125.746 315.268 124.208 313.926 122.867Z"
     fill="white"
     id="path130" />
  <path
     fill-rule="evenodd"
     clip-rule="evenodd"
     d="M327.944 147.303C322.846 152.299 318.799 155.397 319.798 159.295C320.798 163.193 324.544 161.393 324.544 161.393C324.517 164.116 325.344 165.304 326.792 165.596C329.207 166.082 330.491 164.447 329.841 166.49C329.08 168.882 330.336 170.679 332.075 171.33C333.284 171.782 336.057 169.333 335.588 170.688C334.69 173.286 336.238 176.135 338.536 176.135C340.834 176.135 342.384 174.835 341.785 174.735C341.185 174.635 340.685 172.986 340.685 172.986C340.685 172.986 344.133 169.188 345.531 170.088C346.931 170.988 347.23 171.886 347.23 171.886L350.929 177.283C356.85 177.994 354.914 160.868 354.826 160.794C353.428 159.594 339.835 147.402 339.835 147.402C339.835 147.402 334.839 140.507 327.944 147.303Z"
     fill="#F3AAB7"
     id="path131" />
  <path
     fill-rule="evenodd"
     clip-rule="evenodd"
     d="M109.997 62.5333C109.711 61.8764 107.046 61.9804 105.335 61.4266C103.566 60.8545 102.748 59.6187 102.359 58.6777C98.6651 49.7258 93.3271 36.4079 91.0087 34.7512C88.2107 32.7526 84.6132 35.9504 86.2121 42.3469C87.8109 48.7424 91.4094 57.5373 91.4094 57.5373L95.2063 75.7251L106 65.132L109.997 62.5333Z"
     fill="#DCBCC2"
     id="path132" />
  <path
     fill-rule="evenodd"
     clip-rule="evenodd"
     d="M116.477 139.51H148.07C139.23 129.467 127.736 111.069 109.32 84.4063C113.591 71.5699 111.056 63.6785 114.227 55.5435C116.827 48.8725 113.948 45.7826 109.71 49.3964C103.727 54.4994 103.632 59.6023 96.6187 65.1522C96.6187 65.1522 71.3602 65.5134 75.0308 74.0588C81.9436 90.1459 87.9953 87.1937 92.1081 95.0205C92.8748 96.4807 104.618 119.948 116.477 139.51Z"
     fill="#DCBCC2"
     id="path133" />
  <path
     fill-rule="evenodd"
     clip-rule="evenodd"
     d="M71.3985 69.6623C66.7328 74.7431 81.2682 85.7272 82.7342 81.3563C84.3783 76.4556 77.2209 63.3207 71.3985 69.6623Z"
     fill="#DCBCC2"
     id="path134" />
  <path
     fill-rule="evenodd"
     clip-rule="evenodd"
     d="M82.8312 61.1933C81.579 59.9017 78.6442 60.311 77.3844 60.9053C69.546 64.601 83.8117 80.43 86.9912 78.2349C89.8114 76.2874 87.8494 71.7874 86.0877 67.7911C84.5514 64.3082 84.8269 61.0633 82.8312 61.1933Z"
     fill="#DCBCC2"
     id="path135" />
  <path
     fill-rule="evenodd"
     clip-rule="evenodd"
     d="M86.955 72.7484C91.2576 77.6288 95.9039 74.4397 95.2191 70.4281C94.6614 67.1552 93.1521 61.1545 91.5128 58.2178C88.1031 52.1093 76.0094 60.3339 86.955 72.7484Z"
     fill="#DCBCC2"
     id="path136" />
  <path
     fill-rule="evenodd"
     clip-rule="evenodd"
     d="M41.0792 371.084H547.762C552.683 371.084 556.709 375.111 556.709 380.031V380.033C556.709 384.953 552.683 388.981 547.762 388.981H41.0792C36.1592 388.981 32.1321 384.953 32.1321 380.033V380.031C32.1321 375.111 36.1592 371.084 41.0792 371.084Z"
     fill="#1D1349"
     id="path137" />
  <path
     fill-rule="evenodd"
     clip-rule="evenodd"
     d="M22.0354 357.199H566.811C573.089 357.199 578.223 362.335 578.223 368.615C578.223 374.896 573.089 380.027 566.811 380.027H22.0354C15.7574 380.027 10.6226 374.896 10.6226 368.615C10.6226 362.335 15.7574 357.199 22.0354 357.199Z"
     fill="#BF8862"
     id="path138" />
  <path
     d="M421.232 357.199H397.486V380.027H421.232V357.199Z"
     fill="#A36E51"
     id="path139" />
  <path
     d="M445.923 357.199H433.585V380.027H445.923V357.199Z"
     fill="#A36E51"
     id="path140" />
  <path
     d="M465.052 357.199H458.885V380.027H465.052V357.199Z"
     fill="#A36E51"
     id="path141" />
  <path
     d="M512.735 357.199H486.169V380.027H512.735V357.199Z"
     fill="#A36E51"
     id="path142" />
  <path
     d="M546.038 357.199H532.758V380.027H546.038V357.199Z"
     fill="#A36E51"
     id="path143" />
  <path
     fill-rule="evenodd"
     clip-rule="evenodd"
     d="M22.9598 360.902H346.785C350.517 360.902 353.568 363.955 353.568 367.684V367.687C353.568 371.417 350.517 374.471 346.785 374.471H22.9598C19.2284 374.471 16.1761 371.417 16.1761 367.687V367.684C16.1761 363.955 19.2284 360.902 22.9598 360.902Z"
     fill="#D49F81"
     id="path144" />
  <path
     fill-rule="evenodd"
     clip-rule="evenodd"
     d="M474.283 328.902H478.701C479.509 328.902 480.172 329.562 480.172 330.373V334.789C480.172 335.598 479.509 336.261 478.701 336.261H474.283C473.473 336.261 472.813 335.598 472.813 334.789V330.373C472.813 329.562 473.473 328.902 474.283 328.902Z"
     fill="#DAD5EA"
     id="path145" />
  <path
     fill-rule="evenodd"
     clip-rule="evenodd"
     d="M489.358 328.902H493.775C494.583 328.902 495.246 329.562 495.246 330.373V334.789C495.246 335.598 494.583 336.261 493.775 336.261H489.358C488.547 336.261 487.887 335.598 487.887 334.789V330.373C487.887 329.562 488.547 328.902 489.358 328.902Z"
     fill="#DAD5EA"
     id="path146" />
  <path
     fill-rule="evenodd"
     clip-rule="evenodd"
     d="M504.433 328.902H508.85C509.659 328.902 510.321 329.562 510.321 330.373V334.789C510.321 335.598 509.659 336.261 508.85 336.261H504.433C503.623 336.261 502.962 335.598 502.962 334.789V330.373C502.962 329.562 503.623 328.902 504.433 328.902Z"
     fill="#DAD5EA"
     id="path147" />
  <path
     fill-rule="evenodd"
     clip-rule="evenodd"
     d="M519.551 328.902H523.969C524.777 328.902 525.44 329.562 525.44 330.373V334.789C525.44 335.598 524.777 336.261 523.969 336.261H519.551C518.742 336.261 518.08 335.598 518.08 334.789V330.373C518.08 329.562 518.742 328.902 519.551 328.902Z"
     fill="#DAD5EA"
     id="path148" />
</svg>
