<?xml version="1.0" standalone="no"?><!DOCTYPE svg PUBLIC "-//W3C//DTD SVG 1.1//EN" "http://www.w3.org/Graphics/SVG/1.1/DTD/svg11.dtd"><svg t="1714028932529" class="icon" viewBox="0 0 1462 1024" version="1.1" xmlns="http://www.w3.org/2000/svg" p-id="67366" width="182.75" height="128" xmlns:xlink="http://www.w3.org/1999/xlink"><path d="M407.259429 430.811429c46.811429-185.197714 136.996571-281.234286 274.285714-299.666286 93.476571-12.507429 174.299429 12.726857 237.568 64.731428 46.665143 38.4 77.824 89.453714 77.824 108.470858h109.714286c0-141.677714-208.457143-312.905143-439.661715-281.965715C480.987429 47.323429 357.814857 178.468571 300.909714 404.041143l106.349715 26.843428z" fill="#0A73FE" p-id="67367"></path><path d="M633.563429 556.032L496.493714 435.492571a233.106286 233.106286 0 0 0-328.923428 21.211429l-1.462857 1.682286-18.285715 21.211428a305.810286 305.810286 0 0 0-52.736 312.246857 278.308571 278.308571 0 0 0 258.779429 175.908572H507.611429v-109.714286H353.865143a168.594286 168.594286 0 0 1-156.818286-106.569143 196.096 196.096 0 0 1 33.865143-200.265143l18.285714-21.211428 0.731429-0.877714c44.982857-51.2 122.953143-56.173714 174.08-11.190858l137.142857 120.466286 72.411429-82.358857z" fill="#47D5E5" p-id="67368"></path><path d="M347.794286 967.68l491.666285-501.028571a347.428571 347.428571 0 0 1 247.954286-104.082286h52.077714a236.982857 236.982857 0 0 1 236.836572 227.328l2.925714 72.996571a292.790857 292.790857 0 0 1-292.498286 304.859429H347.794286z m738.962285-109.714286a183.076571 183.076571 0 0 0 182.857143-190.537143l-2.925714-73.069714a127.268571 127.268571 0 0 0-127.268571-122.075428h-51.931429a237.714286 237.714286 0 0 0-169.691429 71.241142l-308.662857 314.514286h477.622857z" fill="#03A4FF" p-id="67369"></path></svg>